<svg id="icons" xmlns="http://www.w3.org/2000/svg" viewBox="0 0 128 128">
    <title>falafel</title>
    <g id="falafel_revised" data-name="falafel revised"><path d="M86.54,70.45a26,26,0,1,1-5.15-15.53,25.58,25.58,0,0,1,2.85,4.84A25.87,25.87,0,0,1,86.54,70.45Z" style="fill:none;stroke:#fff;stroke-miterlimit:10;stroke-width:2.0100317001342773px"/><path
        d="M113.93,46.86A25.58,25.58,0,0,0,111.07,42a26,26,0,0,0-43.8,3.32,26,26,0,0,1,14.12,9.58,25.58,25.58,0,0,1,2.85,4.84,26,26,0,0,1-.75,22.88,26,26,0,0,0,30.43-35.78Z"
        style="fill:none;stroke:#fff;stroke-miterlimit:10;stroke-width:2.0100317001342773px"/><path d="M34.54,70.45a26,26,0,0,1,25.63-26,25.41,25.41,0,0,0-1.54-2.31A26,26,0,1,0,37.78,83.69l.41,0A25.83,25.83,0,0,1,34.54,70.45Z" style="fill:none;stroke:#fff;stroke-miterlimit:10;stroke-width:2.0100317001342773px"/>
        <g id="texture"><circle cx="75.69" cy="69.15" r="3.29" style="fill:none;stroke:#fff;stroke-miterlimit:10;stroke-width:2.0100317001342773px"/><circle cx="68.81" cy="56.2" r="3.29" style="fill:none;stroke:#fff;stroke-miterlimit:10;stroke-width:2.0100317001342773px"/><path d="M84.25,59.76a3.28,3.28,0,1,1-2.9-4.84" style="fill:none;stroke:#fff;stroke-miterlimit:10;stroke-width:2.0100317001342773px"/></g>
    </g>
</svg>
