<svg id="icons" xmlns="http://www.w3.org/2000/svg" viewBox="0 0 128 128">
    <title>fish</title>
    <g id="Fish"><path d="M102.37,53.16a4.66,4.66,0,1,0,4.69,4.63A4.67,4.67,0,0,0,102.37,53.16Zm0,5.78a1.12,1.12,0,1,1,1.12-1.13A1.12,1.12,0,0,1,102.4,58.94Z" style="fill:#fff"/><path
        d="M120,60.91A4.59,4.59,0,0,0,116,54c-3.14-4.38-11.54-8.75-19.17-9.82l-.16,0H96.6c-1.79-.3-3.67-.5-5.59-.62a16.85,16.85,0,0,0-9.4-6.08c-3.1-.75-10,0-15.41,1.11C58.43,40.07,54,42,52.91,44.13a2.89,2.89,0,0,0,1,3.64l1,.76c.72.56,1.42,1.1,1.91,1.57A120.43,120.43,0,0,0,33.75,64a35,35,0,0,0-20.43-7.39h0c-2.72,0-4.4.54-5.29,1.65a2.77,2.77,0,0,0-.55,2.35c.53,2.43,3.45,6.86,7.62,9.09-4,3.22-4.79,7.93-4.86,10.82A2.83,2.83,0,0,0,11,82.69a3,3,0,0,0,2.25.84,10.06,10.06,0,0,0,2.25-.37l.38-.09c9.1-2.13,15.92-6.86,19-10.85C39.3,74.14,53.74,80,68.15,81.61a8.64,8.64,0,0,0-1.39.57,3.28,3.28,0,0,0-1.91,3.59c.49,3,4.12,5.16,8.43,5.13a11.79,11.79,0,0,0,4.26-.8,16.89,16.89,0,0,0,9.37-8.79,62.62,62.62,0,0,0,14-3.91h0l.11,0a44.06,44.06,0,0,0,7.08-3.75l0,0a33.76,33.76,0,0,0,2.81-2.06l.05,0a24.14,24.14,0,0,0,4.08-4.21,4.74,4.74,0,0,0,1.16,0,4.6,4.6,0,0,0,4.05-5.08A4.77,4.77,0,0,0,120,60.91Zm-52.78-19c5.77-1.14,11.48-1.59,13.59-1.08a13.16,13.16,0,0,1,5.16,2.52,77.17,77.17,0,0,0-9.91.81,69.62,69.62,0,0,0-15.84,4.46A14.87,14.87,0,0,0,57,45.73l-.53-.41C57.69,44.49,61.08,43.13,67.18,41.92ZM15,79.62l-.41.1-.85.2c.23-3.23,1.56-7.15,6.25-9a1.77,1.77,0,0,0-.45-3.41c-4.06-.44-7.64-4.83-8.51-7.11a8.62,8.62,0,0,1,2.22-.24,32.52,32.52,0,0,1,17.63,6.11,2.77,2.77,0,0,0-.76,2.8,3.17,3.17,0,0,0,1.37,1.61C28.86,73.71,23.2,77.72,15,79.62ZM76.25,86.8a8.38,8.38,0,0,1-3,.57c-2.67,0-4.55-1.12-4.87-2A14,14,0,0,1,71,84.5a20.49,20.49,0,0,0,6.16-2.29,14.88,14.88,0,0,0,4.31-4.55c.94-1.37,1.56-2.21,2.34-2.38a.84.84,0,0,1,.32,0c.22.27.44,1.59-.16,3.62a1.89,1.89,0,0,0-.22.65A13,13,0,0,1,76.25,86.8Zm11.63-9.25A6.33,6.33,0,0,0,87,73.17a3.68,3.68,0,0,0-3.93-1.35c-2.2.48-3.38,2.19-4.51,3.84a14.88,14.88,0,0,1-2.31,2.82h-.11c-18.6.38-41.38-10.17-41.39-10.17s-.43-.31,0-.57h0A116.46,116.46,0,0,1,59.9,52.58a67.61,67.61,0,0,1,16.64-4.9A69.72,69.72,0,0,1,90,47c.91,0,1.82.11,2.71.2A16.24,16.24,0,0,0,88.3,60.43c.71,6.33,3.55,11.6,7.94,15A60.6,60.6,0,0,1,87.89,77.55Zm28.92-18.31a2.19,2.19,0,0,0-.1,3.07,2.87,2.87,0,0,1,.05.3,1.06,1.06,0,0,1-.93,1.16,1,1,0,0,1-.53-.08,2.11,2.11,0,0,0-2.62.81,19.68,19.68,0,0,1-4,4.25l-.07.07c-.75.61-1.58,1.22-2.47,1.81h0a42.63,42.63,0,0,1-5.3,2.93l-.21.08-.37.16c-4.7-2.58-7.78-7.55-8.48-13.77-.64-5.72,2-9.14,5.22-12.29,7.37,1.23,14.68,5.57,16.44,8.8a2.06,2.06,0,0,0,2.39,1h.05a1,1,0,0,1,.9,1.74Z"
        style="fill:#fff"/></g>
</svg>
