<svg id="icons" xmlns="http://www.w3.org/2000/svg" viewBox="0 0 128 128">
    <title>fries</title>
    <path id="Fries"
        d="M113.39,60l-8.2,0,4.94-11.8a1.74,1.74,0,0,0-1.61-2.42h-14L100,30.52a1.74,1.74,0,0,0-1.82-2.33L87.75,29.3l1.32-12.42A1.75,1.75,0,0,0,87.21,15l-14.6,1.11L70.36,9.64a1.75,1.75,0,0,0-2.36-1L55.31,14.31l-.22-.68a1.74,1.74,0,0,0-2.31-1.08L36.07,19.22a1.74,1.74,0,0,0-1,2.09l1.1,4-11.08.09a1.75,1.75,0,0,0-1.43.77,1.71,1.71,0,0,0-.17,1.62L28,39.05H18.52a1.74,1.74,0,0,0-1.38.68,1.72,1.72,0,0,0-.31,1.5l4.75,18.47h-7a1.75,1.75,0,0,0-1.75,1.74c0,11.9.34,21.64,4.57,29.58,3.76,7.05,10.4,12.47,21.87,17.71a10.22,10.22,0,0,0-2.19,6.8,1.74,1.74,0,0,0,1.74,1.74h47a1.75,1.75,0,0,0,1.75-1.74,10.75,10.75,0,0,0-1.81-6.33c12.38-5.5,20.22-11.95,24.53-20.14s4.72-17.63,4.72-27.28A1.75,1.75,0,0,0,113.39,60Zm-7.49-10.76L101.4,60l-12.08,0L93.2,49.27ZM85.6,59.93l-11.92,0V59.7L84.12,33.2l11.66-1.25ZM70.19,34.11l0,25.76L56,59.81V38.58Zm14-4.43-1.5.16a1.74,1.74,0,0,0-1.44,1.1L73.68,50.18V31.73a1.75,1.75,0,0,0-2.27-1.66l-.71.22,1-10.65,13.7-1.05ZM67.7,12.58l1.4,4a1.72,1.72,0,0,0-.75,1.27L67.08,31.43l-5.67,1.78-5-15.56ZM38.82,21.88l13.52-5.39.25.76h0l5.49,17-4.36,1.38a1.73,1.73,0,0,0-1.22,1.66v9.57L44.67,26.34A1.75,1.75,0,0,0,43,25.22l-3.26,0Zm-11.17,7,14.2-.13L52.5,56.65v3.14l-10,0-6.28-19.5a1.75,1.75,0,0,0-1.66-1.21H31.71Zm-6.87,13.7H33.3l5.54,17.2-13.65,0Zm61,64.63H74.28a1.75,1.75,0,0,0,0,3.49h8c.51,0,1.4,1.17,1.76,3.11H40.77c.36-1.94,1.24-3.11,1.76-3.11H61a1.75,1.75,0,0,0,0-3.49H44.48c-13-5.44-20.21-10.76-24-17.8-3.36-6.29-4.09-13.87-4.15-26.19,17.14,0,93.87.34,95.25.34C111.49,82.58,108.74,96.06,81.76,107.18Z"
        style="fill:#fff"/>
      </svg>
