<svg id="icons" xmlns="http://www.w3.org/2000/svg" viewBox="0 0 128 128">
    <title>kids</title>
    <g id="kids">
        <g id="boy">
            <g id="face"><circle cx="80.75" cy="53.46" r="3.38" transform="translate(-11.13 84.04) rotate(-51.92)" style="fill:none;stroke:#fff;stroke-miterlimit:10;stroke-width:1.8913952708244324px"/><circle cx="95.1" cy="60.41" r="3.38" transform="translate(-11.11 98.01) rotate(-51.92)" style="fill:none;stroke:#fff;stroke-miterlimit:10;stroke-width:1.8913952708244324px"/><path d="M73.64,62.52l19.42,8.7a11.24,11.24,0,0,1-12.94,2.85C72.23,70.75,73.64,62.52,73.64,62.52Z" style="fill:none;stroke:#fff;stroke-miterlimit:10;stroke-width:1.8913952708244324px"/></g><path
                id="face-2"
                data-name="face"
                d="M69,72a20.43,20.43,0,0,0,37.29-14.11c-2.63-.85-5.48-3.1-8.26-7.22-7.41-11-19.93-7.68-19.32-8.84l.1-.21a20.44,20.44,0,0,0-10.22,8.49"
                style="fill:none;stroke:#fff;stroke-miterlimit:10;stroke-width:1.8913952708244324px"/><path id="hair" d="M78.75,41.81c-.61,1.17,11.92-2.12,19.32,8.84s15.26,8.71,18.28,1.89c-4.21-.11-5.84,1.17-12.45-8.83C97.12,33.47,83.61,30.63,78.75,41.81Z" style="fill:none;stroke:#fff;stroke-miterlimit:10;stroke-width:1.8913952708244324px"/></g>
        <g id="girl">
            <g id="face-3" data-name="face"><circle cx="36.41" cy="63.43" r="3.85" transform="translate(-6.68 4.34) rotate(-6.25)" style="fill:none;stroke:#fff;stroke-miterlimit:10;stroke-width:1.8913952708244324px"/><circle cx="53.64" cy="57.67" r="3.85" transform="translate(-5.96 6.18) rotate(-6.25)" style="fill:none;stroke:#fff;stroke-miterlimit:10;stroke-width:1.8913952708244324px"/><path d="M37.84,76.46,60.57,68.1A12.8,12.8,0,0,1,52.3,80.72C43.23,84.3,37.84,76.46,37.84,76.46Z" style="fill:none;stroke:#fff;stroke-miterlimit:10;stroke-width:1.8913952708244324px"/></g><path
                d="M68.69,58c-1.11-2.83-3.69-6.74-10.18-9.82-7-2.12-15.84-.42-19-5.22-.37.12-.74.25-1.1.39.2,1.64-.59,3.68-2.59,5.93-3.73,4.2-7.83,4.83-10.09,13.55a36.21,36.21,0,0,0-1.16,9.87A23.26,23.26,0,0,0,68.69,58Z"
                style="fill:none;stroke:#fff;stroke-miterlimit:10;stroke-width:1.8913952708244324px"/><path
                d="M35.81,49.24c6.69-7.54-.08-12.72-12.45-8.2C7.28,46.92,12.17,61.46,13,68.31c.81,7.09,3.63,16.39,1.42,25.06,2.18-.34,7.19-1.43,9.14-4.89,3.83-6.79-1-13.29,2.21-25.69C28,54.07,32.08,53.44,35.81,49.24Z"
                style="fill:none;stroke:#fff;stroke-miterlimit:10;stroke-width:1.8913952708244324px"/><path d="M69.85,61.53c-.77,1.28.95-7.57-11.35-13.4-7.25-2.21-16.6-.25-19.39-5.83C48.26,31.43,72.22,40.73,69.85,61.53Z" style="fill:none;stroke:#fff;stroke-miterlimit:10;stroke-width:1.8913952708244324px"/></g>
    </g>
</svg>
