<svg id="icons" xmlns="http://www.w3.org/2000/svg" viewBox="0 0 128 128">
    <title>shake</title><path
        id="Shake"
        d="M94.59,13.51,92,8.78A1.8,1.8,0,0,0,89.59,8L76.32,15.19l-.84.46a1.82,1.82,0,0,0-.8.9l-.35.86-6.26,15A26.1,26.1,0,0,0,36.43,52.64a6.81,6.81,0,0,0-3.24,5.41,7.35,7.35,0,0,0,1.46,4.17l8.7,56.42a1.8,1.8,0,0,0,1.78,1.53h34a1.79,1.79,0,0,0,1.78-1.53L89.65,62.2a7.34,7.34,0,0,0,1.45-4.15,6.78,6.78,0,0,0-3.22-5.37,1.82,1.82,0,0,0-.37-.3A26,26,0,0,0,76.31,36L82,22.34,93.86,16a1.81,1.81,0,0,0,.73-2.45Zm-17,103.06H46.68L38.51,63.65H68.74a1.8,1.8,0,1,0,0-3.6H37.57l-.14-.12a3.8,3.8,0,0,1-.64-1.88,3.28,3.28,0,0,1,1.51-2.34H85.94a3.36,3.36,0,0,1,1.56,2.34,3.91,3.91,0,0,1-.63,1.87,1.09,1.09,0,0,0-.16.14h-6a1.8,1.8,0,1,0,0,3.6h5Zm2.1-97.09a1.78,1.78,0,0,0-.81.89L72.39,36a1.8,1.8,0,0,0,.76,2.26A22.39,22.39,0,0,1,83.75,52.12H40.25A22.47,22.47,0,0,1,68.6,36.29a1.8,1.8,0,0,0,2.19-1l7-16.77,11.94-6.42.85,1.57Z"
        style="fill:#fff"/></svg>
