<svg id="icons" xmlns="http://www.w3.org/2000/svg" viewBox="0 0 128 128">
    <title>taco</title>
    <g id="Taco"><path
        d="M114.39,67.6C110.72,59.69,104.07,52,95.64,46c-10-7.12-19.47-11.14-35-13.07a42.51,42.51,0,0,0-5.32-.48c-7.44,0-13.08,5.26-15.32,7.74a16.14,16.14,0,0,0-7.38-2c-6.33,0-9.89,4.7-11.37,7.27-1.92-.61-5.28-1.12-7.65,2.6-2.06,3.24-.61,7.08.64,9.35C10.9,59.19,9,61.35,8.63,63.91c-.6,4,2.7,7.27,4.14,8.5a68.35,68.35,0,0,0-5,20.93,1.84,1.84,0,0,0,1.85,2l104.42.16c2.3,0,3.08.14,4.84-2.19C122.5,88.56,117.8,75,114.39,67.6ZM12.29,64.46c.31-2,3.09-3.56,5.37-4.47a1.86,1.86,0,0,0,.77-2.86c-.88-1.13-3.07-4.83-1.68-7,1.05-1.65,2.18-1.56,4.18-.77a6.06,6.06,0,0,0,.81.28,1.86,1.86,0,0,0,2.17-1.11c0-.07,2.7-6.55,8.74-6.55a13.59,13.59,0,0,1,6.86,2.24,1.85,1.85,0,0,0,2.44-.48c.06-.08,5.72-7.51,13.41-7.51,4.53,0,7.89,1.63,10,4.86a13.15,13.15,0,0,1,2,5.41h0v0a1.86,1.86,0,0,0,.88,1.58,1.89,1.89,0,0,0,1.81.08c1.59-.81,6.28-2.47,8.88-.54,3.11,2.3,4,7,4.09,7.89a1.84,1.84,0,0,0,.49,1.39,1.86,1.86,0,0,0,1.82.54s3.87-.92,5.71,1.32c1.55,1.88.5,5.37,0,6.56a1.85,1.85,0,0,0,2,2.59s4.69-.65,6.31,2c1.36,2.24-2.43,5.12-2.46,5.15a1.86,1.86,0,0,0,.68,3.31c.26.06,5.08,1.34,6.87,4.9,1.38,2.76-1.19,6.58-2.79,8.41-.72,0-1.93,0-3.84-.05A78.33,78.33,0,0,0,79.73,62c-8.72-8.82-18.66-13.68-28-13.68a46.12,46.12,0,0,0-22.8,5.74A36.42,36.42,0,0,0,15.1,67.67c-.22.39-.44.8-.67,1.23C13.27,67.72,12.06,66,12.29,64.46Zm-.59,27.18A62.53,62.53,0,0,1,16.5,73.11c.28-.62.57-1.23.87-1.82s.65-1.26,1-1.81C23.09,61.05,34.37,52,51.74,52c8.33,0,17.34,4.46,25.35,12.57a74.35,74.35,0,0,1,16.69,27Zm104.75-1.05c-.94,1.25-1.64,1.26-4.25,1.17-.58,0-6,0-6,0,1.71-2.62,3.31-6.45,1.49-10.1a13.28,13.28,0,0,0-6.37-5.77c1.67-2.08,2.89-5,1.14-7.86s-4.9-3.66-7.22-3.82c.48-2.2.65-5.34-1.33-7.76-2.17-2.64-5.39-3-7.48-2.85a22.72,22.72,0,0,0-.66-2.27,14.27,14.27,0,0,0-4.64-6.65c-3.36-2.48-7.84-1.6-10.51-.7a16.93,16.93,0,0,0-2-4.72c-.26-.4-.54-.81-.86-1.22,22,4.6,37.42,18.4,43.31,31.15C117.76,83.71,117.22,89.56,116.45,90.59Z"
        style="fill:#fff"/><path d="M68.77,65.77a5.77,5.77,0,1,0,5.77,5.77A5.78,5.78,0,0,0,68.77,65.77Zm0,7.83a2.06,2.06,0,1,1,2.06-2.07A2.06,2.06,0,0,1,68.77,73.6Z" style="fill:#fff"/><path d="M59,76.42a5.77,5.77,0,1,0,5.77,5.77A5.77,5.77,0,0,0,59,76.42Zm0,7.83A2.06,2.06,0,1,1,61,82.19,2.06,2.06,0,0,1,59,84.26Z" style="fill:#fff"/><path d="M61.49,66.32a5.77,5.77,0,1,0-5.77,5.77A5.78,5.78,0,0,0,61.49,66.32Zm-7.83,0a2.06,2.06,0,1,1,2.07,2.06A2.07,2.07,0,0,1,53.66,66.32Z" style="fill:#fff"/></g>
</svg>
