<svg id="icons" xmlns="http://www.w3.org/2000/svg" viewBox="0 0 128 128">
    <title>the-port-icons</title>
    <g id="phone"><path
        d="M93.07,87.89l-5.81-5.81s-10.8,9.09-18.46,1.43L56.47,71.19h0l-12-12c-7.66-7.66,1.43-18.46,1.43-18.46L24.59,19.42c-14.2,14.2-9,38.22-1,46.3L41.12,83.2h0l21.16,21.16c8.07,8.07,32.1,13.25,46.3-1L97.16,92"
        style="fill:none;stroke:#fff;stroke-miterlimit:10;stroke-width:2.51114821434021px"/><path d="M87.26,82.09l2.92-2.92a2.79,2.79,0,0,1,3.95,0L111.5,96.54a2.79,2.79,0,0,1,0,3.95l-2.92,2.92" style="fill:none;stroke:#fff;stroke-miterlimit:10;stroke-width:2.51114821434021px"/><path d="M45.91,40.73l2.9-2.9a2.82,2.82,0,0,0,0-4L31.48,16.52a2.82,2.82,0,0,0-4,0l-2.9,2.9" style="fill:none;stroke:#fff;stroke-miterlimit:10;stroke-width:2.51114821434021px"/></g>
</svg>
