<?xml version="1.0" encoding="utf-8"?>
<!-- Generator: Adobe Illustrator 19.1.0, SVG Export Plug-In . SVG Version: 6.00 Build 0)  -->
<svg version="1.1" id="working" xmlns="http://www.w3.org/2000/svg" xmlns:xlink="http://www.w3.org/1999/xlink" x="0px" y="0px"
	 viewBox="0 0 170.3 144" style="enable-background:new 0 0 170.3 144;" xml:space="preserve">
<style type="text/css">
	.st0{fill:none;stroke:#513527;stroke-width:3.7567;stroke-miterlimit:10;}
	.st1{fill:none;stroke:#513527;stroke-width:1.8784;stroke-miterlimit:10;}
	.st2{fill:none;stroke:#513527;stroke-width:0.9392;stroke-miterlimit:10;}
	.st3{fill:none;stroke:#513527;stroke-width:3.7567;stroke-linecap:round;stroke-miterlimit:10;}
	.st4{fill:#513527;}
	.st5{fill:none;stroke:#513527;stroke-width:2.7233;stroke-miterlimit:10;}
	.st6{fill:none;stroke:#513527;stroke-width:2.7233;stroke-linecap:round;stroke-miterlimit:10;}
	.st7{fill:#513527;stroke:#513527;stroke-width:3.2972;stroke-miterlimit:10;}
	.st8{fill:none;stroke:#513527;stroke-width:4;stroke-linecap:round;stroke-miterlimit:10;}
	.st9{fill:#FFFFFF;stroke:#513527;stroke-width:3.7567;stroke-linecap:round;stroke-miterlimit:10;}
</style>
<g id="OPEN_1_">
	<g id="halo_2_">
		<path class="st8" d="M53.6,43.3c3.9-2.2,8-4.4,12.3-6.3c34.6-15.7,68.7-14.9,76.3,1.7c1.5,3.3,1.6,12-0.5,16.6"/>
		<path class="st8" d="M106,99.6c-5.1,3.2-8.4,4.8-14.3,7.5c-34.6,15.7-68.7,14.9-76.3-1.7c-1.7-3.8-1.9-8.1-0.8-12.7"/>
	</g>
	<g id="open_1_">
		<path id="O_3_" class="st4" d="M39.3,91.4c0,0,0.1,0.1,0.2,0c9.4-2,16.3-10.5,16.3-20c0-11.3-9.3-20.5-20.7-20.5
			c-11.4,0-20.7,9.2-20.7,20.5c0,9.6,6.8,18,16.3,20c0.1,0,0.2,0,0.2,0c0,0,0.1-0.1,0.1-0.2l0.5-3.2c0-0.1-0.1-0.3-0.2-0.3
			C24,85.9,19,79.2,19,71.4c0-9.4,7.1-16.7,16.1-16.7S51.3,62,51.3,71.4c0,7.8-5.1,14.5-12.3,16.3c-0.1,0-0.2,0.2-0.2,0.3l0.5,3.2
			C39.2,91.3,39.3,91.4,39.3,91.4z"/>
		<path id="P_2_" class="st4" d="M88.7,63.8c0-5.9-3.7-12.3-11.7-12.3H62.2c-0.9,0-1.2,0.4-1.2,1.2v37.3c0,0.9,0.4,1.2,1.2,1.2h2
			c0.9,0,1.2-0.4,1.2-1.2V75.7h11.5C82.8,75.7,88.7,72,88.7,63.8z M65.5,71.3V56.1c0-0.7,0.5-1.2,1.2-1.2h9c5,0,8.4,3.6,8.4,8.9
			c0,5.2-3.4,8.8-8.4,8.8h-9C66,72.5,65.5,72,65.5,71.3z"/>
		<g id="E_3_">
			<path class="st4" d="M103.4,70.2c-0.5,0-0.9,0.4-0.9,0.9v1.5c0,0.5,0.4,0.9,0.9,0.9h11.6c0.7,0,1.2-0.5,1.2-1.2v-0.8
				c0-0.7-0.5-1.2-1.2-1.2H103.4z"/>
			<path class="st4" d="M117.6,91.3c0.6,0,1.1-0.5,1.1-1.1v-1.1c0-0.6-0.5-1.1-1.1-1.1H99.9c-0.8,0-1.5-0.7-1.5-1.5V56.3
				c0-0.8,0.7-1.5,1.5-1.5h17.8c0.6,0,1.1-0.5,1.1-1.1v-1.1c0-0.6-0.5-1.1-1.1-1.1H95.8c-1,0-1.9,0.8-1.9,1.9v36.1
				c0,1,0.8,1.9,1.9,1.9H117.6z"/>
		</g>
		<path id="N_2_" class="st4" d="M155.2,91.3c0.9,0,1.3-0.4,1.3-1.2V52.8c0-0.8-0.4-1.2-1.3-1.2h-2c-0.7,0-1.2,0.5-1.2,1.2v28.5
			c0,0.7-0.9,1-1.3,0.4L129,52.5c-0.5-0.7-1-0.9-1.9-0.9h-0.9c-0.7,0-1.2,0.5-1.2,1.2v37.3c0,0.7,0.5,1.2,1.2,1.2h2
			c0.7,0,1.2-0.5,1.2-1.2V61.5c0-0.7,0.9-1,1.3-0.4l21.7,29.3c0.5,0.7,1,0.9,1.9,0.9H155.2z"/>
	</g>
</g>
</svg>
