<?xml version="1.0" encoding="utf-8"?>
<!-- Generator: Adobe Illustrator 19.1.0, SVG Export Plug-In . SVG Version: 6.00 Build 0)  -->
<svg version="1.1" id="working" xmlns="http://www.w3.org/2000/svg" xmlns:xlink="http://www.w3.org/1999/xlink" x="0px" y="0px"
	 viewBox="0 0 144 144" style="enable-background:new 0 0 144 144;" xml:space="preserve">
<style type="text/css">
	.st0{fill:none;stroke:#513527;stroke-width:3.7567;stroke-miterlimit:10;}
	.st1{fill:none;stroke:#513527;stroke-width:1.8784;stroke-miterlimit:10;}
	.st2{fill:none;stroke:#513527;stroke-width:0.9392;stroke-miterlimit:10;}
	.st3{fill:none;stroke:#513527;stroke-width:3.7567;stroke-linecap:round;stroke-miterlimit:10;}
	.st4{fill:#513527;}
	.st5{fill:none;stroke:#513527;stroke-width:2.7233;stroke-miterlimit:10;}
	.st6{fill:none;stroke:#513527;stroke-width:2.7233;stroke-linecap:round;stroke-miterlimit:10;}
	.st7{fill:#513527;stroke:#513527;stroke-width:3.2972;stroke-miterlimit:10;}
	.st8{fill:none;stroke:#513527;stroke-width:4;stroke-linecap:round;stroke-miterlimit:10;}
	.st9{fill:#FFFFFF;stroke:#513527;stroke-width:3.7567;stroke-linecap:round;stroke-miterlimit:10;}
</style>
<g id="foggy_1_">
	<g>
		<path class="st0" d="M8.7,30c12.6,0,12.6,8.2,25.3,8.2c12.6,0,12.6-8.2,25.3-8.2C72,30,72,38.2,84.6,38.2
			c12.7,0,12.7-8.2,25.3-8.2s12.7,8.2,25.3,8.2"/>
	</g>
	<g>
		<path class="st0" d="M8.7,55.2c12.6,0,12.6,8.2,25.3,8.2c12.6,0,12.6-8.2,25.3-8.2c12.7,0,12.7,8.2,25.3,8.2
			c12.7,0,12.7-8.2,25.3-8.2s12.7,8.2,25.3,8.2"/>
	</g>
	<g>
		<path class="st0" d="M8.7,80.5c12.6,0,12.6,8.2,25.3,8.2c12.6,0,12.6-8.2,25.3-8.2c12.7,0,12.7,8.2,25.3,8.2
			c12.7,0,12.7-8.2,25.3-8.2s12.7,8.2,25.3,8.2"/>
	</g>
	<g>
		<path class="st0" d="M8.7,105.8c12.6,0,12.6,8.2,25.3,8.2c12.6,0,12.6-8.2,25.3-8.2c12.7,0,12.7,8.2,25.3,8.2
			c12.7,0,12.7-8.2,25.3-8.2s12.7,8.2,25.3,8.2"/>
	</g>
</g>
</svg>
