<?xml version="1.0" encoding="utf-8"?>
<!-- Generator: Adobe Illustrator 19.1.0, SVG Export Plug-In . SVG Version: 6.00 Build 0)  -->
<svg version="1.1" id="working" xmlns="http://www.w3.org/2000/svg" xmlns:xlink="http://www.w3.org/1999/xlink" x="0px" y="0px"
	 viewBox="0 0 176.2 141.1" style="enable-background:new 0 0 176.2 141.1;" xml:space="preserve">
<style type="text/css">
	.st0{fill:none;stroke:#513527;stroke-width:3.7567;stroke-miterlimit:10;}
	.st1{fill:none;stroke:#513527;stroke-width:1.8784;stroke-miterlimit:10;}
	.st2{fill:none;stroke:#513527;stroke-width:0.9392;stroke-miterlimit:10;}
	.st3{fill:none;stroke:#513527;stroke-width:3.7567;stroke-linecap:round;stroke-miterlimit:10;}
	.st4{fill:#513527;}
	.st5{fill:none;stroke:#513527;stroke-width:2.7233;stroke-miterlimit:10;}
	.st6{fill:none;stroke:#513527;stroke-width:2.7233;stroke-linecap:round;stroke-miterlimit:10;}
	.st7{fill:#513527;stroke:#513527;stroke-width:3.2972;stroke-miterlimit:10;}
	.st8{fill:none;stroke:#513527;stroke-width:4;stroke-linecap:round;stroke-miterlimit:10;}
	.st9{fill:#FFFFFF;stroke:#513527;stroke-width:3.7567;stroke-linecap:round;stroke-miterlimit:10;}
</style>
<g id="t-storm_1_">
	<path id="second_3_" class="st5" d="M59.1,62.6c0-9.7,4-18.4,10.4-24.6c-1.9-0.6-4-0.9-6.1-0.9c-9.4,0-17.4,5.9-20.6,14.2
		c-2.4-1.4-5.2-2.2-8.1-2.2c-8.8,0-16,7.2-16,16c0,2,0.4,3.9,1,5.7h25h5h10.4C59.5,68.1,59.1,65.4,59.1,62.6z"/>
	<path id="cloud_12_" class="st5" d="M86.5,28.8C70.9,32.1,59.1,46,59.1,62.6c0,6.7,1.9,13,5.2,18.2h28.7"/>
	<path id="cloud_11_" class="st5" d="M121.3,42.1c-2.5-3.4-5.7-6.3-9.2-8.6"/>
	<path id="cloud_10_" class="st5" d="M120.7,80.8h2.1H162c1-2.8,1.6-5.7,1.6-8.9c0-13.9-11.2-25.1-25.1-25.1c-4.6,0-9,1.3-12.7,3.5
		c-0.2-0.5-0.4-0.9-0.6-1.4"/>
	<g id="rain-strokes_3_">
		<line class="st6" x1="18.7" y1="112.8" x2="53.3" y2="78.1"/>
		<line class="st6" x1="48.1" y1="112.5" x2="73.7" y2="86.9"/>
		<line class="st6" x1="49.3" y1="97.8" x2="60.3" y2="86.8"/>
		<line class="st6" x1="99.3" y1="112.6" x2="124.9" y2="87"/>
		<line class="st6" x1="124.9" y1="112.7" x2="150.5" y2="87.1"/>
		<line class="st6" x1="126.2" y1="98" x2="137.2" y2="87"/>
	</g>
	<g id="lightning_1_">
		<polygon class="st7" points="103.4,11 72.7,41.7 103.4,41.7 133.9,11.2 		"/>
		<polygon class="st7" points="103.4,41.7 72.7,72.3 103.4,72.3 133.9,41.8 		"/>
		<polygon class="st7" points="103.4,72.3 50.4,125.3 133.9,72.5 		"/>
	</g>
</g>
</svg>
