<?xml version="1.0" encoding="utf-8"?>
<!-- Generator: Adobe Illustrator 19.1.0, SVG Export Plug-In . SVG Version: 6.00 Build 0)  -->
<svg version="1.1" id="working" xmlns="http://www.w3.org/2000/svg" xmlns:xlink="http://www.w3.org/1999/xlink" x="0px" y="0px"
	 viewBox="0 0 144 144" style="enable-background:new 0 0 144 144;" xml:space="preserve">
<style type="text/css">
	.st0{fill:none;stroke:#513527;stroke-width:3.7567;stroke-miterlimit:10;}
	.st1{fill:none;stroke:#513527;stroke-width:1.8784;stroke-miterlimit:10;}
	.st2{fill:none;stroke:#513527;stroke-width:0.9392;stroke-miterlimit:10;}
	.st3{fill:none;stroke:#513527;stroke-width:3.7567;stroke-linecap:round;stroke-miterlimit:10;}
	.st4{fill:#513527;}
	.st5{fill:none;stroke:#513527;stroke-width:2.7233;stroke-miterlimit:10;}
	.st6{fill:none;stroke:#513527;stroke-width:2.7233;stroke-linecap:round;stroke-miterlimit:10;}
	.st7{fill:#513527;stroke:#513527;stroke-width:3.2972;stroke-miterlimit:10;}
	.st8{fill:none;stroke:#513527;stroke-width:4;stroke-linecap:round;stroke-miterlimit:10;}
	.st9{fill:#FFFFFF;stroke:#513527;stroke-width:3.7567;stroke-linecap:round;stroke-miterlimit:10;}
</style>
<g id="winter_1_">
	<path class="st0" d="M80.9,93.4V14c0-3.2-2.6-5.8-5.8-5.8h-6.3c-3.2,0-5.8,2.6-5.8,5.8v79.4c0,1.1-0.6,2.1-1.5,2.6
		c-7.2,4-11.7,12.1-10.7,21.1c1.1,9.7,9,17.5,18.7,18.6c12.8,1.4,23.7-8.6,23.7-21.1c0-8-4.4-14.9-10.9-18.5
		C81.5,95.4,80.9,94.4,80.9,93.4z"/>
	<line class="st3" x1="74.9" y1="28.5" x2="89" y2="28.5"/>
	<line class="st3" x1="74.9" y1="49.5" x2="89" y2="49.5"/>
	<line class="st3" x1="74.9" y1="70.6" x2="89" y2="70.6"/>
	<circle class="st4" cx="72.4" cy="114.6" r="14.7"/>
</g>
</svg>
