<?xml version="1.0" encoding="utf-8"?>
<!-- Generator: Adobe Illustrator 19.1.0, SVG Export Plug-In . SVG Version: 6.00 Build 0)  -->
<svg version="1.1" id="working" xmlns="http://www.w3.org/2000/svg" xmlns:xlink="http://www.w3.org/1999/xlink" x="0px" y="0px"
	 viewBox="0 0 144 144" style="enable-background:new 0 0 144 144;" xml:space="preserve">
<style type="text/css">
	.st0{fill:none;stroke:#513527;stroke-width:3.7567;stroke-miterlimit:10;}
	.st1{fill:none;stroke:#513527;stroke-width:1.8784;stroke-miterlimit:10;}
	.st2{fill:none;stroke:#513527;stroke-width:0.9392;stroke-miterlimit:10;}
	.st3{fill:none;stroke:#513527;stroke-width:3.7567;stroke-linecap:round;stroke-miterlimit:10;}
	.st4{fill:#513527;}
	.st5{fill:none;stroke:#513527;stroke-width:2.7233;stroke-miterlimit:10;}
	.st6{fill:none;stroke:#513527;stroke-width:2.7233;stroke-linecap:round;stroke-miterlimit:10;}
	.st7{fill:#513527;stroke:#513527;stroke-width:3.2972;stroke-miterlimit:10;}
	.st8{fill:none;stroke:#513527;stroke-width:4;stroke-linecap:round;stroke-miterlimit:10;}
	.st9{fill:#FFFFFF;stroke:#513527;stroke-width:3.7567;stroke-linecap:round;stroke-miterlimit:10;}
</style>
<g id="phone_1_">
	<path class="st0" d="M104.3,98.5l-6.4-6.4c0,0-12,10.1-20.5,1.6L63.6,80h0L50.3,66.7c-8.5-8.5,1.6-20.5,1.6-20.5L28.2,22.5
		c-15.8,15.8-10,42.4-1.1,51.4l19.4,19.4l0,0l23.5,23.5c9,9,35.6,14.7,51.4-1.1l-12.7-12.7"/>
	<path class="st0" d="M97.8,92.1l3.2-3.2c1.2-1.2,3.2-1.2,4.4,0l19.3,19.3c1.2,1.2,1.2,3.2,0,4.4l-3.2,3.2"/>
	<path class="st0" d="M51.9,46.2l3.2-3.2c1.2-1.2,1.2-3.2,0-4.4L35.9,19.3c-1.2-1.2-3.2-1.2-4.4,0l-3.2,3.2"/>
</g>
</svg>
