<?xml version="1.0" encoding="utf-8"?>
<!-- Generator: Adobe Illustrator 19.1.0, SVG Export Plug-In . SVG Version: 6.00 Build 0)  -->
<svg version="1.1" id="working" xmlns="http://www.w3.org/2000/svg" xmlns:xlink="http://www.w3.org/1999/xlink" x="0px" y="0px"
	 viewBox="0 0 186.8 134.6" style="enable-background:new 0 0 186.8 134.6;" xml:space="preserve">
<style type="text/css">
	.st0{fill:none;stroke:#513527;stroke-width:3.7567;stroke-miterlimit:10;}
	.st1{fill:none;stroke:#513527;stroke-width:1.8784;stroke-miterlimit:10;}
	.st2{fill:none;stroke:#513527;stroke-width:0.9392;stroke-miterlimit:10;}
	.st3{fill:none;stroke:#513527;stroke-width:3.7567;stroke-linecap:round;stroke-miterlimit:10;}
	.st4{fill:#513527;}
	.st5{fill:none;stroke:#513527;stroke-width:2.7233;stroke-miterlimit:10;}
	.st6{fill:none;stroke:#513527;stroke-width:2.7233;stroke-linecap:round;stroke-miterlimit:10;}
	.st7{fill:#513527;stroke:#513527;stroke-width:3.2972;stroke-miterlimit:10;}
	.st8{fill:none;stroke:#513527;stroke-width:4;stroke-linecap:round;stroke-miterlimit:10;}
	.st9{fill:#FFFFFF;stroke:#513527;stroke-width:3.7567;stroke-linecap:round;stroke-miterlimit:10;}
</style>
<g id="rainy_1_">
	<path id="second_2_" class="st0" d="M57.5,59c0-10.6,4.4-20.2,11.4-27.1c-2.1-0.6-4.4-0.9-6.7-0.9c-10.3,0-19.1,6.5-22.6,15.6
		C37,45,34,44.1,30.7,44.1c-9.7,0-17.6,7.9-17.6,17.6c0,2.2,0.4,4.3,1.1,6.2h27.5h5.4h11.4C57.9,65,57.5,62,57.5,59z"/>
	<path id="cloud_9_" class="st0" d="M144.8,41.7c-5.1,0-9.9,1.4-14,3.8c-5.4-14.3-19.2-24.4-35.4-24.4c-20.9,0-37.9,17-37.9,37.9
		c0,7.4,2.1,14.2,5.7,20H119h8.5h43.1c1.1-3,1.8-6.3,1.8-9.8C172.3,54,160,41.7,144.8,41.7z"/>
	<g id="rain-strokes_2_">
		<line class="st3" x1="13" y1="114.1" x2="51.1" y2="76"/>
		<line class="st3" x1="45.3" y1="113.9" x2="73.5" y2="85.7"/>
		<line class="st3" x1="46.7" y1="97.7" x2="58.8" y2="85.6"/>
		<line class="st3" x1="73.5" y1="113.9" x2="101.6" y2="85.8"/>
		<line class="st3" x1="74.9" y1="97.7" x2="87" y2="85.7"/>
		<line class="st3" x1="101.6" y1="114" x2="129.8" y2="85.8"/>
		<line class="st3" x1="103" y1="97.8" x2="115.1" y2="85.7"/>
		<line class="st3" x1="129.8" y1="114" x2="157.9" y2="85.9"/>
		<line class="st3" x1="131.2" y1="97.8" x2="143.3" y2="85.8"/>
	</g>
</g>
</svg>
