<?xml version="1.0" encoding="utf-8"?>
<!-- Generator: Adobe Illustrator 20.0.0, SVG Export Plug-In . SVG Version: 6.00 Build 0)  -->
<svg version="1.1" id="working" xmlns="http://www.w3.org/2000/svg" xmlns:xlink="http://www.w3.org/1999/xlink" x="0px" y="0px"
	 viewBox="0 0 170.3 144" style="enable-background:new 0 0 170.3 144;" xml:space="preserve">
<style type="text/css">
	.st0{fill:none;stroke:#513527;stroke-width:3.7567;stroke-miterlimit:10;}
	.st1{fill:none;stroke:#513527;stroke-width:1.8784;stroke-miterlimit:10;}
	.st2{fill:none;stroke:#513527;stroke-width:0.9392;stroke-miterlimit:10;}
	.st3{fill:none;stroke:#513527;stroke-width:3.7567;stroke-linecap:round;stroke-miterlimit:10;}
	.st4{fill:#513527;}
	.st5{fill:none;stroke:#513527;stroke-width:2.7233;stroke-miterlimit:10;}
	.st6{fill:none;stroke:#513527;stroke-width:2.7233;stroke-linecap:round;stroke-miterlimit:10;}
	.st7{fill:#513527;stroke:#513527;stroke-width:3.2972;stroke-miterlimit:10;}
	.st8{fill:none;stroke:#513527;stroke-width:4;stroke-linecap:round;stroke-miterlimit:10;}
	.st9{fill:#FFFFFF;stroke:#513527;stroke-width:3.7567;stroke-linecap:round;stroke-miterlimit:10;}
	.st10{fill:none;stroke:#513527;stroke-width:4;stroke-miterlimit:10;}
</style>
<path id="Shake" class="st4" d="M115.8,21.5l-2.6-4.7c-0.5-0.9-1.5-1.2-2.4-0.8l-13.3,7.2l-0.8,0.5c-0.4,0.2-0.6,0.5-0.8,0.9
	l-0.3,0.9l-6.3,15c-14-3.3-28.1,5.3-31.4,19.3c-0.1,0.3-0.1,0.6-0.2,0.9c-1.9,1.2-3.1,3.2-3.2,5.4c0,1.5,0.6,3,1.5,4.2l8.7,56.4
	c0.1,0.9,0.9,1.5,1.8,1.5h34c0.9,0,1.7-0.6,1.8-1.5l8.7-56.4c0.9-1.2,1.4-2.7,1.4-4.2c-0.1-2.2-1.3-4.2-3.2-5.4
	c-0.1-0.1-0.2-0.2-0.4-0.3c-1.4-6.7-5.4-12.6-11.2-16.4l5.7-13.7L115,24C115.9,23.5,116.2,22.4,115.8,21.5L115.8,21.5z M98.8,124.6
	H67.8l-8.2-52.9h30.2c1,0,1.8-0.8,1.8-1.8c0-1-0.8-1.8-1.8-1.8c0,0,0,0,0,0H58.7l-0.1-0.1c-0.4-0.6-0.6-1.2-0.6-1.9
	c0.1-1,0.7-1.8,1.5-2.3h47.6c0.8,0.5,1.4,1.4,1.6,2.3c0,0.7-0.3,1.3-0.6,1.9c-0.1,0-0.1,0.1-0.2,0.1h-6c-1,0-1.8,0.8-1.8,1.8
	c0,1,0.8,1.8,1.8,1.8c0,0,0,0,0,0h5L98.8,124.6z M100.9,27.5c-0.4,0.2-0.7,0.5-0.8,0.9L93.6,44c-0.4,0.8,0,1.8,0.8,2.3
	c5.3,3,9.1,8,10.6,13.9H61.4c3.1-12,15.4-19.2,27.4-16.1c0.3,0.1,0.6,0.2,1,0.3c0.9,0.3,1.8-0.2,2.2-1l7-16.8l11.9-6.4l0.8,1.6
	L100.9,27.5z"/>
</svg>
