<?xml version="1.0" encoding="utf-8"?>
<!-- Generator: Adobe Illustrator 19.1.0, SVG Export Plug-In . SVG Version: 6.00 Build 0)  -->
<svg version="1.1" id="working" xmlns="http://www.w3.org/2000/svg" xmlns:xlink="http://www.w3.org/1999/xlink" x="0px" y="0px"
	 viewBox="0 0 154 144" style="enable-background:new 0 0 154 144;" xml:space="preserve">
<style type="text/css">
	.st0{fill:none;stroke:#513527;stroke-width:3.7567;stroke-miterlimit:10;}
	.st1{fill:none;stroke:#513527;stroke-width:1.8784;stroke-miterlimit:10;}
	.st2{fill:none;stroke:#513527;stroke-width:0.9392;stroke-miterlimit:10;}
	.st3{fill:none;stroke:#513527;stroke-width:3.7567;stroke-linecap:round;stroke-miterlimit:10;}
	.st4{fill:#513527;}
	.st5{fill:none;stroke:#513527;stroke-width:2.7233;stroke-miterlimit:10;}
	.st6{fill:none;stroke:#513527;stroke-width:2.7233;stroke-linecap:round;stroke-miterlimit:10;}
	.st7{fill:#513527;stroke:#513527;stroke-width:3.2972;stroke-miterlimit:10;}
	.st8{fill:none;stroke:#513527;stroke-width:4;stroke-linecap:round;stroke-miterlimit:10;}
	.st9{fill:#FFFFFF;stroke:#513527;stroke-width:3.7567;stroke-linecap:round;stroke-miterlimit:10;}
</style>
<g id="night-clear_1_">
	<path id="moon_1_" class="st0" d="M101,68.2c-3.4-15.5-0.6-30.8,6.6-43.6c-18.2,7.2-31.1,25-31.1,45.7c0,27.2,22,49.2,49.2,49.2
		c7.3,0,14.3-1.6,20.5-4.5C124.2,109.3,106.2,91.8,101,68.2z"/>
	<polygon id="star_5_" class="st1" points="32.3,59 21.2,54.5 32.1,51.5 36.8,38.9 41.1,51.4 52.3,54.5 41.2,59 36.8,70 	"/>
	<polygon id="star_4_" class="st2" points="15.7,82.2 7.8,79 15.5,76.9 18.8,68 21.9,76.9 29.8,79 21.9,82.2 18.8,90 	"/>
</g>
</svg>
