<?xml version="1.0" encoding="utf-8"?>
<!-- Generator: Adobe Illustrator 20.0.0, SVG Export Plug-In . SVG Version: 6.00 Build 0)  -->
<svg version="1.1" id="working" xmlns="http://www.w3.org/2000/svg" xmlns:xlink="http://www.w3.org/1999/xlink" x="0px" y="0px"
	 viewBox="0 0 170.3 144" style="enable-background:new 0 0 170.3 144;" xml:space="preserve">
<style type="text/css">
	.st0{fill:none;stroke:#513527;stroke-width:3.7567;stroke-miterlimit:10;}
	.st1{fill:none;stroke:#513527;stroke-width:1.8784;stroke-miterlimit:10;}
	.st2{fill:none;stroke:#513527;stroke-width:0.9392;stroke-miterlimit:10;}
	.st3{fill:none;stroke:#513527;stroke-width:3.7567;stroke-linecap:round;stroke-miterlimit:10;}
	.st4{fill:#513527;}
	.st5{fill:none;stroke:#513527;stroke-width:2.7233;stroke-miterlimit:10;}
	.st6{fill:none;stroke:#513527;stroke-width:2.7233;stroke-linecap:round;stroke-miterlimit:10;}
	.st7{fill:#513527;stroke:#513527;stroke-width:3.2972;stroke-miterlimit:10;}
	.st8{fill:none;stroke:#513527;stroke-width:4;stroke-linecap:round;stroke-miterlimit:10;}
	.st9{fill:#FFFFFF;stroke:#513527;stroke-width:3.7567;stroke-linecap:round;stroke-miterlimit:10;}
	.st10{fill:none;stroke:#513527;stroke-width:4;stroke-miterlimit:10;}
</style>
<path id="Fries" class="st4" d="M134.6,69.1h-8.2l4.9-11.8c0.4-0.9,0-1.9-0.9-2.3c-0.2-0.1-0.5-0.1-0.7-0.1h-14l5.5-15.3
	c0.3-0.9-0.1-1.9-1-2.2c-0.3-0.1-0.5-0.1-0.8-0.1L109,38.4l1.3-12.4c0.1-1-0.6-1.8-1.6-1.9c-0.1,0-0.2,0-0.2,0l-14.6,1.1l-2.2-6.5
	c-0.3-0.9-1.3-1.4-2.2-1c0,0-0.1,0-0.1,0l-12.7,5.7l-0.2-0.7c-0.3-0.9-1.3-1.4-2.2-1.1c0,0-0.1,0-0.1,0l-16.7,6.7
	c-0.8,0.3-1.2,1.2-1,2.1l1.1,4l-11.1,0.1c-0.6,0-1.1,0.3-1.4,0.8c-0.3,0.5-0.4,1.1-0.2,1.6l4.5,11.3h-9.5c-0.5,0-1.1,0.3-1.4,0.7
	c-0.3,0.4-0.4,1-0.3,1.5l4.8,18.5h-7c-1,0-1.7,0.8-1.8,1.7c0,11.9,0.3,21.6,4.6,29.6c3.8,7.1,10.4,12.5,21.9,17.7
	c-1.5,1.9-2.3,4.3-2.2,6.8c0,1,0.8,1.7,1.7,1.7h47c1,0,1.7-0.8,1.8-1.7c0.1-2.2-0.6-4.5-1.8-6.3c12.4-5.5,20.2-11.9,24.5-20.1
	c4.3-8.2,4.7-17.6,4.7-27.3C136.3,70,135.6,69.2,134.6,69.1z M127.1,58.4l-4.5,10.8h-12.1l3.9-10.7L127.1,58.4z M106.8,69.1H94.9
	v-0.2l10.4-26.5l11.7-1.2L106.8,69.1z M91.4,43.2V69l-14.2-0.1V47.7L91.4,43.2z M105.4,38.8l-1.5,0.2c-0.6,0.1-1.2,0.5-1.4,1.1
	l-7.6,19.2V40.9c0-1-0.8-1.7-1.8-1.7c-0.2,0-0.3,0-0.5,0.1l-0.7,0.2l1-10.6l13.7-1L105.4,38.8z M88.9,21.7l1.4,4
	c-0.4,0.3-0.7,0.8-0.8,1.3l-1.3,13.6l-5.7,1.8l-5-15.6L88.9,21.7z M60.1,31l13.5-5.4l0.2,0.8l0,0l5.5,17L75,44.8
	c-0.7,0.2-1.2,0.9-1.2,1.7V56l-7.8-20.5c-0.3-0.7-0.9-1.1-1.7-1.1H61L60.1,31z M48.9,38l14.2-0.1l10.7,27.9v3.1h-10l-6.3-19.5
	c-0.2-0.7-0.9-1.2-1.7-1.2H53L48.9,38z M42,51.7h12.5l5.5,17.2H46.4L42,51.7z M103,116.3h-7.5c-1,0.1-1.7,0.9-1.6,1.9
	c0.1,0.9,0.8,1.5,1.6,1.6h8c0.5,0,1.4,1.2,1.8,3.1H62c0.4-1.9,1.2-3.1,1.8-3.1h18.5c1-0.1,1.7-0.9,1.6-1.9c-0.1-0.9-0.8-1.5-1.6-1.6
	H65.7c-13-5.4-20.2-10.8-24-17.8c-3.4-6.3-4.1-13.9-4.1-26.2c17.1,0,93.9,0.3,95.3,0.3C132.7,91.7,130,105.2,103,116.3L103,116.3z"
	/>
</svg>
