<?xml version="1.0" encoding="utf-8"?>
<!-- Generator: Adobe Illustrator 19.1.0, SVG Export Plug-In . SVG Version: 6.00 Build 0)  -->
<svg version="1.1" id="working" xmlns="http://www.w3.org/2000/svg" xmlns:xlink="http://www.w3.org/1999/xlink" x="0px" y="0px"
	 viewBox="0 0 165.3 144" style="enable-background:new 0 0 165.3 144;" xml:space="preserve">
<style type="text/css">
	.st0{fill:none;stroke:#513527;stroke-width:3.7567;stroke-miterlimit:10;}
	.st1{fill:none;stroke:#513527;stroke-width:1.8784;stroke-miterlimit:10;}
	.st2{fill:none;stroke:#513527;stroke-width:0.9392;stroke-miterlimit:10;}
	.st3{fill:none;stroke:#513527;stroke-width:3.7567;stroke-linecap:round;stroke-miterlimit:10;}
	.st4{fill:#513527;}
	.st5{fill:none;stroke:#513527;stroke-width:2.7233;stroke-miterlimit:10;}
	.st6{fill:none;stroke:#513527;stroke-width:2.7233;stroke-linecap:round;stroke-miterlimit:10;}
	.st7{fill:#513527;stroke:#513527;stroke-width:3.2972;stroke-miterlimit:10;}
	.st8{fill:none;stroke:#513527;stroke-width:4;stroke-linecap:round;stroke-miterlimit:10;}
	.st9{fill:#FFFFFF;stroke:#513527;stroke-width:3.7567;stroke-linecap:round;stroke-miterlimit:10;}
</style>
<g id="wind_1_">
	<g id="trails_7_">
		<path class="st3" d="M97.1,43.5c-0.2-0.8-0.3-1.6-0.3-2.4c0-5,4.1-9.1,9.1-9.1s9.1,4.1,9.1,9.1s-4.1,9.1-9.1,9.1"/>
		<line class="st0" x1="105.8" y1="50.2" x2="13.7" y2="50.2"/>
	</g>
	<g id="trails_6_">
		<path class="st3" d="M127.2,55.7c-0.3-1-0.4-2.1-0.4-3.3c0-6.9,5.6-12.5,12.5-12.5c6.9,0,12.5,5.6,12.5,12.5s-5.6,12.5-12.5,12.5"
			/>
		<line class="st0" x1="139.2" y1="64.9" x2="13.7" y2="64.9"/>
	</g>
	<g id="trails_5_">
		<path class="st3" d="M97.1,100.5c-0.2,0.8-0.3,1.6-0.3,2.4c0,5,4.1,9.1,9.1,9.1s9.1-4.1,9.1-9.1c0-5-4.1-9.1-9.1-9.1"/>
		<line class="st0" x1="105.8" y1="93.8" x2="13.7" y2="93.8"/>
	</g>
	<g id="trails_4_">
		<path class="st3" d="M127.2,88.3c-0.3,1-0.4,2.1-0.4,3.3c0,6.9,5.6,12.5,12.5,12.5c6.9,0,12.5-5.6,12.5-12.5
			c0-6.9-5.6-12.5-12.5-12.5"/>
		<line class="st0" x1="139.2" y1="79.1" x2="13.7" y2="79.1"/>
	</g>
</g>
</svg>
