<?xml version="1.0" encoding="utf-8"?>
<!-- Generator: Adobe Illustrator 20.0.0, SVG Export Plug-In . SVG Version: 6.00 Build 0)  -->
<svg version="1.1" id="working" xmlns="http://www.w3.org/2000/svg" xmlns:xlink="http://www.w3.org/1999/xlink" x="0px" y="0px"
	 viewBox="0 0 170.3 144" style="enable-background:new 0 0 170.3 144;" xml:space="preserve">
<style type="text/css">
	.st0{fill:none;stroke:#513527;stroke-width:3.7567;stroke-miterlimit:10;}
	.st1{fill:none;stroke:#513527;stroke-width:1.8784;stroke-miterlimit:10;}
	.st2{fill:none;stroke:#513527;stroke-width:0.9392;stroke-miterlimit:10;}
	.st3{fill:none;stroke:#513527;stroke-width:3.7567;stroke-linecap:round;stroke-miterlimit:10;}
	.st4{fill:#513527;}
	.st5{fill:none;stroke:#513527;stroke-width:2.7233;stroke-miterlimit:10;}
	.st6{fill:none;stroke:#513527;stroke-width:2.7233;stroke-linecap:round;stroke-miterlimit:10;}
	.st7{fill:#513527;stroke:#513527;stroke-width:3.2972;stroke-miterlimit:10;}
	.st8{fill:none;stroke:#513527;stroke-width:4;stroke-linecap:round;stroke-miterlimit:10;}
	.st9{fill:#FFFFFF;stroke:#513527;stroke-width:3.7567;stroke-linecap:round;stroke-miterlimit:10;}
	.st10{fill:none;stroke:#513527;stroke-width:4;stroke-miterlimit:10;}
</style>
<g id="Taco">
	<path class="st4" d="M136.4,79.6c-3.7-7.9-10.3-15.6-18.7-21.6c-10-7.1-19.5-11.1-35-13.1c-1.8-0.3-3.5-0.4-5.3-0.5
		c-7.4,0-13.1,5.3-15.3,7.7c-2.3-1.2-4.8-1.9-7.4-2c-6.3,0-9.9,4.7-11.4,7.3c-1.9-0.6-5.3-1.1-7.7,2.6c-2.1,3.2-0.6,7.1,0.6,9.3
		c-3.3,1.8-5.2,3.9-5.6,6.5c-0.6,4,2.7,7.3,4.1,8.5c-2.8,6.7-4.4,13.7-5,20.9c-0.1,1,0.7,1.9,1.7,2c0.1,0,0.1,0,0.2,0l104.4,0.2
		c2.3,0,3.1,0.1,4.8-2.2C144.5,100.5,139.8,87,136.4,79.6z M34.3,76.4c0.3-2,3.1-3.6,5.4-4.5c1-0.4,1.4-1.5,1-2.4
		c-0.1-0.2-0.1-0.3-0.3-0.4c-0.9-1.1-3.1-4.8-1.7-7c1-1.7,2.2-1.6,4.2-0.8c0.3,0.1,0.5,0.2,0.8,0.3c0.9,0.2,1.8-0.3,2.2-1.1
		c0-0.1,2.7-6.5,8.7-6.5c2.4,0.1,4.8,0.9,6.9,2.2c0.8,0.5,1.9,0.3,2.4-0.5c0.1-0.1,5.7-7.5,13.4-7.5c4.5,0,7.9,1.6,10,4.9
		c1.1,1.6,1.7,3.5,2,5.4l0,0l0,0c0,0.6,0.3,1.2,0.9,1.6c0.6,0.3,1.2,0.4,1.8,0.1c1.6-0.8,6.3-2.5,8.9-0.5c3.1,2.3,4,7,4.1,7.9
		c0,0.5,0.1,1,0.5,1.4c0.5,0.5,1.2,0.7,1.8,0.5c0,0,3.9-0.9,5.7,1.3c1.6,1.9,0.5,5.4,0,6.6c-0.4,0.9,0,2,0.9,2.5
		c0.3,0.2,0.7,0.2,1.1,0.1c0,0,4.7-0.7,6.3,2c1.4,2.2-2.4,5.1-2.5,5.2c-0.8,0.6-1,1.8-0.4,2.6c0.3,0.4,0.6,0.6,1.1,0.7
		c0.3,0.1,5.1,1.3,6.9,4.9c1.4,2.8-1.2,6.6-2.8,8.4c-0.7,0-1.9,0-3.8-0.1c-3.7-11.1-9.9-21.2-18.1-29.6c-8.7-8.8-18.7-13.7-28-13.7
		c-8-0.1-15.8,1.9-22.8,5.7c-5.8,3.2-10.5,7.9-13.8,13.6c-0.2,0.4-0.4,0.8-0.7,1.2C35.3,79.7,34.1,78,34.3,76.4z M33.7,103.6
		c0.6-6.4,2.3-12.6,4.8-18.5c0.3-0.6,0.6-1.2,0.9-1.8c0.3-0.6,0.7-1.3,1-1.8C45.1,73,56.4,64,73.8,64c8.3,0,17.3,4.5,25.4,12.6
		c7.4,7.7,13.1,16.9,16.7,27L33.7,103.6z M138.5,102.5c-0.9,1.2-1.6,1.3-4.2,1.2c-0.6,0-6,0-6,0c1.7-2.6,3.3-6.4,1.5-10.1
		c-1.4-2.6-3.7-4.6-6.4-5.8c1.7-2.1,2.9-5,1.1-7.9s-4.9-3.7-7.2-3.8c0.5-2.2,0.7-5.3-1.3-7.8c-2.2-2.6-5.4-3-7.5-2.8
		c-0.2-0.8-0.4-1.5-0.7-2.3c-0.9-2.6-2.5-4.9-4.6-6.7c-3.4-2.5-7.8-1.6-10.5-0.7c-0.4-1.7-1.1-3.3-2-4.7c-0.3-0.4-0.5-0.8-0.9-1.2
		c22,4.6,37.4,18.4,43.3,31.1C139.8,95.7,139.3,101.5,138.5,102.5z"/>
	<path class="st4" d="M90.8,77.7c-3.2,0-5.8,2.6-5.8,5.8s2.6,5.8,5.8,5.8s5.8-2.6,5.8-5.8v0C96.6,80.3,94,77.7,90.8,77.7z
		 M90.8,85.6c-1.1,0-2.1-0.9-2.1-2.1c0-1.1,0.9-2.1,2.1-2.1c1.1,0,2.1,0.9,2.1,2.1C92.9,84.6,92,85.6,90.8,85.6
		C90.8,85.6,90.8,85.6,90.8,85.6z"/>
	<path class="st4" d="M81,88.4c-3.2,0-5.8,2.6-5.8,5.8s2.6,5.8,5.8,5.8s5.8-2.6,5.8-5.8v0C86.8,91,84.2,88.4,81,88.4z M81,96.2
		c-1.1,0-2.1-0.9-2.1-2c0-1.1,0.9-2.1,2-2.1c1.1,0,2.1,0.9,2.1,2c0,0,0,0,0,0.1C83,95.3,82.2,96.2,81,96.2L81,96.2z"/>
	<path class="st4" d="M83.5,78.3c0-3.2-2.6-5.8-5.8-5.8c-3.2,0-5.8,2.6-5.8,5.8c0,3.2,2.6,5.8,5.8,5.8h0
		C80.9,84,83.5,81.5,83.5,78.3z M75.7,78.3c0-1.1,0.9-2.1,2.1-2.1c1.1,0,2.1,0.9,2.1,2.1c0,1.1-0.9,2.1-2,2.1
		C76.6,80.3,75.7,79.4,75.7,78.3z"/>
</g>
</svg>
