<?xml version="1.0" encoding="utf-8"?>
<!-- Generator: Adobe Illustrator 19.1.0, SVG Export Plug-In . SVG Version: 6.00 Build 0)  -->
<svg version="1.1" id="working" xmlns="http://www.w3.org/2000/svg" xmlns:xlink="http://www.w3.org/1999/xlink" x="0px" y="0px"
	 viewBox="0 0 165 144" style="enable-background:new 0 0 165 144;" xml:space="preserve">
<style type="text/css">
	.st0{fill:none;stroke:#513527;stroke-width:3.7567;stroke-miterlimit:10;}
	.st1{fill:none;stroke:#513527;stroke-width:1.8784;stroke-miterlimit:10;}
	.st2{fill:none;stroke:#513527;stroke-width:0.9392;stroke-miterlimit:10;}
	.st3{fill:none;stroke:#513527;stroke-width:3.7567;stroke-linecap:round;stroke-miterlimit:10;}
	.st4{fill:#513527;}
	.st5{fill:none;stroke:#513527;stroke-width:2.7233;stroke-miterlimit:10;}
	.st6{fill:none;stroke:#513527;stroke-width:2.7233;stroke-linecap:round;stroke-miterlimit:10;}
	.st7{fill:#513527;stroke:#513527;stroke-width:3.2972;stroke-miterlimit:10;}
	.st8{fill:none;stroke:#513527;stroke-width:4;stroke-linecap:round;stroke-miterlimit:10;}
	.st9{fill:#FFFFFF;stroke:#513527;stroke-width:3.7567;stroke-linecap:round;stroke-miterlimit:10;}
</style>
<g id="partly-sunny_1_">
	<g id="sun-partly_1_">
		<path class="st0" d="M71.8,73.4c0-15,12.2-27.4,27.2-27.4s27.2,12.2,27.2,27.2c0,8.7-2.6,15.1-9,20.1"/>
		<g id="light-beams_3_">
			<line class="st3" x1="133" y1="67.9" x2="156.7" y2="64.3"/>
			<line class="st3" x1="127.8" y1="91.8" x2="137.5" y2="97.8"/>
			<line class="st3" x1="69.9" y1="53.9" x2="60.6" y2="48"/>
			<line class="st3" x1="84.3" y1="41.6" x2="74.1" y2="20.2"/>
			<line class="st3" x1="99" y1="38.1" x2="99" y2="27.1"/>
			<line class="st3" x1="112.8" y1="41.3" x2="122.3" y2="19.5"/>
			<line class="st3" x1="125.1" y1="50.6" x2="134" y2="43.3"/>
		</g>
	</g>
	<path id="cloud_7_" class="st0" d="M98.3,86.1c-5.3,0-10.2,1.4-14.4,3.9c-5.6-14.7-19.8-25.2-36.5-25.2c-21.6,0-39,17.5-39,39
		c0,7.6,2.2,14.7,5.9,20.7h57.5h8.8h44.4c1.2-3.1,1.8-6.5,1.8-10.1C126.7,98.8,114,86.1,98.3,86.1z"/>
</g>
</svg>
