<?xml version="1.0" encoding="utf-8"?>
<!-- Generator: Adobe Illustrator 19.1.0, SVG Export Plug-In . SVG Version: 6.00 Build 0)  -->
<svg version="1.1" id="working" xmlns="http://www.w3.org/2000/svg" xmlns:xlink="http://www.w3.org/1999/xlink" x="0px" y="0px"
	 viewBox="0 0 244 144" style="enable-background:new 0 0 244 144;" xml:space="preserve">
<style type="text/css">
	.st0{fill:none;stroke:#513527;stroke-width:3.7567;stroke-miterlimit:10;}
	.st1{fill:none;stroke:#513527;stroke-width:1.8784;stroke-miterlimit:10;}
	.st2{fill:none;stroke:#513527;stroke-width:0.9392;stroke-miterlimit:10;}
	.st3{fill:none;stroke:#513527;stroke-width:3.7567;stroke-linecap:round;stroke-miterlimit:10;}
	.st4{fill:#513527;}
	.st5{fill:none;stroke:#513527;stroke-width:2.7233;stroke-miterlimit:10;}
	.st6{fill:none;stroke:#513527;stroke-width:2.7233;stroke-linecap:round;stroke-miterlimit:10;}
	.st7{fill:#513527;stroke:#513527;stroke-width:3.2972;stroke-miterlimit:10;}
	.st8{fill:none;stroke:#513527;stroke-width:4;stroke-linecap:round;stroke-miterlimit:10;}
	.st9{fill:#FFFFFF;stroke:#513527;stroke-width:3.7567;stroke-linecap:round;stroke-miterlimit:10;}
</style>
<g id="CLOSED_2_">
	<g id="brown-_1_">
		<line id="bottom_2_" class="st9" x1="26.9" y1="101.2" x2="217.1" y2="101.2"/>
		<line id="top_2_" class="st9" x1="26.9" y1="42.8" x2="217.1" y2="42.8"/>
	</g>
	<g id="closed_1_">
		<path id="C_2_" class="st4" d="M26.9,71.3c0,11.5,8.4,19.5,20.5,19.5c4.5,0,8-1,11.4-3.3c0.3-0.2,0.6-0.4,0-1.4l-0.5-0.9
			c-0.3-0.5-0.6-0.9-1.6-0.3c-2.7,1.5-6.2,2.4-9.3,2.4c-9.5,0-16.2-6.5-16.2-15.9s6.7-15.9,16.2-15.9c3.1,0,6.6,0.9,9.3,2.4
			c1,0.6,1.3,0.2,1.6-0.3l0.5-0.9c0.4-0.8,0.3-1.2-0.4-1.6c-3.2-2.1-6.7-3.1-11-3.1C35.4,51.8,26.9,59.8,26.9,71.3z"/>
		<path id="L_2_" class="st4" d="M66.6,52.4h-1.9c-0.6,0-1.1,0.5-1.1,1.1V89c0,0.6,0.5,1.1,1.1,1.1h19.9c0.8,0,1.2-0.4,1.2-1.1v-0.8
			c0-0.8-0.4-1.1-1.2-1.1H69.3c-0.9,0-1.6-0.7-1.6-1.6V53.5C67.8,52.9,67.3,52.4,66.6,52.4z"/>
		<path id="O_1_" class="st4" d="M108.2,90.9c0,0,0.1,0.1,0.2,0c8.9-1.9,15.4-9.9,15.4-19c0-10.8-8.8-19.5-19.7-19.5
			s-19.7,8.7-19.7,19.5c0,9.1,6.5,17.1,15.4,19c0.1,0,0.2,0,0.2,0c0,0,0.1-0.1,0.1-0.2l0.5-3.1c0-0.1-0.1-0.2-0.2-0.3
			c-6.9-1.7-11.7-8.1-11.7-15.5c0-8.9,6.7-15.9,15.4-15.9s15.4,7,15.4,15.9c0,7.4-4.8,13.8-11.7,15.5c-0.1,0-0.2,0.1-0.2,0.3
			l0.5,3.1C108.1,90.8,108.2,90.8,108.2,90.9z"/>
		<path id="S_2_" class="st4" d="M126.7,83.3c2.1,4.7,7,7.5,13.2,7.5c7.9,0,13-4.2,13-10.6c0-4.3-3.5-8.1-9.1-9.9l-5.9-2.2
			c-5-1.9-5.6-4.5-5.6-6.3c0-3.8,3.2-6.4,7.7-6.4c3.7,0,6.4,1.5,7.8,4.3c0.5,0.9,0.9,1,1.6,0.8l1.4-0.4c0.4-0.1,0.7-0.3,0.8-0.6
			c0.1-0.2,0.1-0.5,0-0.8c-1.8-4.4-6-6.9-11.6-6.9c-5.9,0-11.9,3.5-11.9,10.1c0,4.6,2.9,7.9,8.7,9.8l5.9,2c4.2,1.5,6.3,3.9,6.3,6.9
			c0,4-3.7,6.8-9.1,6.8c-3.9,0-7.4-1.8-9.1-4.8c-0.4-0.8-0.7-1-1.1-1c-0.1,0-0.3,0-0.5,0.1l-1.6,0.4c-0.4,0.1-0.7,0.3-0.8,0.6
			C126.5,82.7,126.5,83,126.7,83.3L126.7,83.3z"/>
		<g id="E_1_">
			<path class="st4" d="M176.8,70.1h-11c-0.5,0-0.8,0.4-0.8,0.8v1.4c0,0.5,0.4,0.8,0.8,0.8h11c0.6,0,1.1-0.5,1.1-1.1v-0.8
				C177.9,70.6,177.4,70.1,176.8,70.1z"/>
			<path class="st4" d="M179.2,90.1c0.6,0,1.1-0.5,1.1-1.1v-0.8c0-0.6-0.5-1.1-1.1-1.1h-16.8c-0.8,0-1.4-0.6-1.4-1.4V56.9
				c0-0.8,0.6-1.4,1.4-1.4h16.8c0.6,0,1.1-0.5,1.1-1.1v-0.8c0-0.6-0.5-1.1-1.1-1.1h-20.7c-0.9,0-1.7,0.8-1.7,1.7v34.4
				c0,0.9,0.8,1.7,1.7,1.7H179.2z"/>
		</g>
		<path id="D_2_" class="st4" d="M197.6,90.1c11.4,0,19.4-7.8,19.4-18.9s-8-18.9-19.4-18.9h-10.9c-0.8,0-1.1,0.3-1.1,1.1V89
			c0,0.8,0.3,1.1,1.1,1.1H197.6z M189.8,57.1c0-0.9,0.7-1.6,1.6-1.6h6.1c9,0,15.2,6.5,15.2,15.8c0,9.3-6.3,15.8-15.2,15.8h-6.1
			c-0.9,0-1.6-0.7-1.6-1.6V57.1z"/>
	</g>
</g>
</svg>
