<?xml version="1.0" encoding="utf-8"?>
<!-- Generator: Adobe Illustrator 20.0.0, SVG Export Plug-In . SVG Version: 6.00 Build 0)  -->
<svg version="1.1" id="working" xmlns="http://www.w3.org/2000/svg" xmlns:xlink="http://www.w3.org/1999/xlink" x="0px" y="0px"
	 viewBox="0 0 170.3 144" style="enable-background:new 0 0 170.3 144;" xml:space="preserve">
<style type="text/css">
	.st0{fill:none;stroke:#513527;stroke-width:3.7567;stroke-miterlimit:10;}
	.st1{fill:none;stroke:#513527;stroke-width:1.8784;stroke-miterlimit:10;}
	.st2{fill:none;stroke:#513527;stroke-width:0.9392;stroke-miterlimit:10;}
	.st3{fill:none;stroke:#513527;stroke-width:3.7567;stroke-linecap:round;stroke-miterlimit:10;}
	.st4{fill:#513527;}
	.st5{fill:none;stroke:#513527;stroke-width:2.7233;stroke-miterlimit:10;}
	.st6{fill:none;stroke:#513527;stroke-width:2.7233;stroke-linecap:round;stroke-miterlimit:10;}
	.st7{fill:#513527;stroke:#513527;stroke-width:3.2972;stroke-miterlimit:10;}
	.st8{fill:none;stroke:#513527;stroke-width:4;stroke-linecap:round;stroke-miterlimit:10;}
	.st9{fill:#FFFFFF;stroke:#513527;stroke-width:3.7567;stroke-linecap:round;stroke-miterlimit:10;}
	.st10{fill:none;stroke:#513527;stroke-width:4;stroke-miterlimit:10;}
</style>
<g id="Fish">
	<path class="st4" d="M128.6,59.7c-2.9,0-5.3,2.4-5.2,5.3c0,2.9,2.4,5.3,5.3,5.2c2.9,0,5.3-2.4,5.2-5.3
		C133.9,62,131.5,59.7,128.6,59.7z M128.6,66.2c-0.7,0-1.3-0.6-1.3-1.3c0-0.7,0.6-1.3,1.3-1.3c0.7,0,1.3,0.6,1.3,1.3
		C129.8,65.6,129.3,66.2,128.6,66.2L128.6,66.2z"/>
	<path class="st4" d="M148.5,68.5c1.5-2.5,0.6-5.7-1.9-7.1c-0.8-0.5-1.7-0.7-2.7-0.7c-3.6-5-13.1-9.9-21.7-11.1h-0.2H122
		c-2-0.3-4.2-0.6-6.3-0.7c-2.7-3.4-6.4-5.9-10.6-6.9c-3.5-0.8-11.3,0-17.4,1.3c-8.8,1.7-13.8,3.9-15,6.3c-0.7,1.5-0.2,3.2,1.1,4.1
		l1.1,0.9c0.8,0.6,1.6,1.2,2.2,1.8c-9.3,4.3-18,9.5-26.1,15.7c-6.6-5.2-14.7-8.1-23.1-8.4l0,0c-3.1,0-5,0.6-6,1.9
		c-0.6,0.7-0.8,1.7-0.6,2.7c0.6,2.8,3.9,7.8,8.6,10.3c-4.5,3.6-5.4,9-5.5,12.2c-0.1,0.9,0.2,1.8,0.9,2.5c0.7,0.7,1.6,1,2.5,1
		c0.9,0,1.7-0.2,2.5-0.4l0.4-0.1c10.3-2.4,18-7.8,21.5-12.3c5,2.2,21.3,8.8,37.7,10.6c-0.5,0.2-1.1,0.4-1.6,0.6
		c-1.6,0.7-2.5,2.4-2.2,4.1c0.6,3.4,4.7,5.8,9.5,5.8c1.6,0,3.3-0.3,4.8-0.9c4.7-1.8,8.5-5.4,10.6-9.9c5.4-0.9,10.8-2.3,15.8-4.4l0,0
		h0.1c2.8-1.2,5.5-2.6,8-4.2l0,0c1.1-0.7,2.2-1.5,3.2-2.3h0.1c1.7-1.4,3.3-3,4.6-4.8c0.4,0.1,0.9,0.1,1.3,0c2.9-0.3,4.9-2.9,4.6-5.7
		C148.8,69.5,148.7,69,148.5,68.5z M88.8,47c6.5-1.3,13-1.8,15.4-1.2c2.1,0.5,4.1,1.5,5.8,2.9c-3.8,0.1-7.5,0.4-11.2,0.9
		c-6.2,1-12.2,2.7-17.9,5c-1-1.3-2.3-2.4-3.6-3.3l-0.6-0.5C78,49.9,81.8,48.3,88.8,47L88.8,47z M29.7,89.6l-0.5,0.1l-1,0.2
		c0.3-3.7,1.8-8.1,7.1-10.2c1-0.4,1.5-1.6,1.1-2.6c-0.3-0.7-0.9-1.2-1.7-1.3c-4.6-0.5-8.6-5.5-9.6-8c0.8-0.2,1.7-0.3,2.5-0.3
		c7.2,0.3,14.1,2.7,20,6.9c-0.9,0.8-1.2,2-0.9,3.2c0.3,0.8,0.8,1.4,1.6,1.8C45.4,82.9,39,87.5,29.7,89.6z M99,97.8
		c-1.1,0.4-2.2,0.6-3.4,0.6c-3,0-5.2-1.3-5.5-2.3c1-0.4,1.9-0.8,3-1c2.4-0.5,4.8-1.4,7-2.6c2-1.4,3.6-3.1,4.9-5.2
		c1.1-1.6,1.8-2.5,2.6-2.7c0.1,0,0.2,0,0.4,0c0.2,0.3,0.5,1.8-0.2,4.1c-0.1,0.2-0.2,0.5-0.2,0.7C105.9,93.4,102.9,96.3,99,97.8z
		 M112.2,87.3c0.3-1.7-0.1-3.5-1-5c-1-1.4-2.8-2-4.4-1.5c-2.5,0.5-3.8,2.5-5.1,4.3c-0.7,1.2-1.6,2.2-2.6,3.2h-0.1
		C77.8,88.8,52,76.8,52,76.8c0,0-0.5-0.4,0-0.6l0,0c8.7-6.9,18.3-12.7,28.5-17.2c6-2.6,12.3-4.5,18.8-5.5c5-0.7,10.1-1,15.2-0.8
		c1,0,2.1,0.1,3.1,0.2c-3.8,4-5.7,9.5-5,15c0.8,7.2,4,13.1,9,17C118.5,85.9,115.4,86.7,112.2,87.3L112.2,87.3z M144.9,66.6
		c-1,0.9-1,2.5-0.1,3.5c0,0.1,0,0.2,0.1,0.3c0.1,0.7-0.4,1.2-1.1,1.3c-0.2,0-0.4,0-0.6-0.1c-1.1-0.5-2.3-0.1-3,0.9
		c-1.3,1.8-2.8,3.4-4.5,4.8l-0.1,0.1c-0.8,0.7-1.8,1.4-2.8,2l0,0c-1.9,1.2-3.9,2.4-6,3.3l-0.2,0.1l-0.4,0.2
		c-5.3-2.9-8.8-8.5-9.6-15.6c-0.7-6.5,2.3-10.3,5.9-13.9c8.3,1.4,16.6,6.3,18.6,10c0.5,1,1.6,1.4,2.7,1.1h0.1
		c0.6-0.2,1.2,0.2,1.4,0.8C145.4,65.9,145.2,66.3,144.9,66.6L144.9,66.6z"/>
</g>
</svg>
