<?xml version="1.0" encoding="utf-8"?>
<!-- Generator: Adobe Illustrator 19.1.0, SVG Export Plug-In . SVG Version: 6.00 Build 0)  -->
<svg version="1.1" id="working" xmlns="http://www.w3.org/2000/svg" xmlns:xlink="http://www.w3.org/1999/xlink" x="0px" y="0px"
	 viewBox="0 0 172.2 144" style="enable-background:new 0 0 172.2 144;" xml:space="preserve">
<style type="text/css">
	.st0{fill:none;stroke:#513527;stroke-width:3.7567;stroke-miterlimit:10;}
	.st1{fill:none;stroke:#513527;stroke-width:1.8784;stroke-miterlimit:10;}
	.st2{fill:none;stroke:#513527;stroke-width:0.9392;stroke-miterlimit:10;}
	.st3{fill:none;stroke:#513527;stroke-width:3.7567;stroke-linecap:round;stroke-miterlimit:10;}
	.st4{fill:#513527;}
	.st5{fill:none;stroke:#513527;stroke-width:2.7233;stroke-miterlimit:10;}
	.st6{fill:none;stroke:#513527;stroke-width:2.7233;stroke-linecap:round;stroke-miterlimit:10;}
	.st7{fill:#513527;stroke:#513527;stroke-width:3.2972;stroke-miterlimit:10;}
	.st8{fill:none;stroke:#513527;stroke-width:4;stroke-linecap:round;stroke-miterlimit:10;}
	.st9{fill:#FFFFFF;stroke:#513527;stroke-width:3.7567;stroke-linecap:round;stroke-miterlimit:10;}
</style>
<g id="night-cloudy_1_">
	<path id="moon_3_" class="st0" d="M117.4,75.4c1.2,0.1,2.4,0.2,3.7,0.2c4.9,0,9.6-1.1,13.8-3C120.1,68.8,108,57,104.5,41.1
		c-2.3-10.4-0.4-20.7,4.4-29.3C96.7,16.6,88,28.5,88,42.5c0,7.1,2.2,13.7,6.1,19.1"/>
	<polygon id="star_7_" class="st1" points="44.8,39.3 37.3,36.2 44.7,34.2 47.9,25.6 50.8,34.2 58.5,36.2 50.9,39.3 47.9,46.8 	"/>
	<polygon id="star_6_" class="st2" points="33.5,55.2 28.1,53 33.4,51.5 35.6,45.5 37.7,51.5 43.1,53 37.8,55.2 35.6,60.5 	"/>
	<g id="clouds_3_">
		<path class="st0" d="M54,97c0-9.9,4.1-18.9,10.7-25.3c-2-0.6-4.1-0.9-6.2-0.9c-9.6,0-17.9,6-21.1,14.6c-2.4-1.4-5.3-2.3-8.3-2.3
			c-9.1,0-16.4,7.4-16.4,16.4c0,2,0.4,4,1.1,5.8h25.7h5.1H55C54.4,102.6,54,99.8,54,97z"/>
		<path id="cloud_13_" class="st0" d="M135.5,80.8c-4.8,0-9.2,1.3-13.1,3.6c-5.1-13.3-18-22.8-33.1-22.8C69.9,61.6,54,77.4,54,97
			c0,6.9,2,13.3,5.4,18.7h52.1h8h40.2c1.1-2.8,1.7-5.9,1.7-9.1C161.3,92.3,149.7,80.8,135.5,80.8z"/>
	</g>
</g>
</svg>
