<?xml version="1.0" encoding="utf-8"?>
<!-- Generator: Adobe Illustrator 19.1.0, SVG Export Plug-In . SVG Version: 6.00 Build 0)  -->
<svg version="1.1" id="working" xmlns="http://www.w3.org/2000/svg" xmlns:xlink="http://www.w3.org/1999/xlink" x="0px" y="0px"
	 viewBox="0 0 173.5 144" style="enable-background:new 0 0 173.5 144;" xml:space="preserve">
<style type="text/css">
	.st0{fill:none;stroke:#513527;stroke-width:3.7567;stroke-miterlimit:10;}
	.st1{fill:none;stroke:#513527;stroke-width:1.8784;stroke-miterlimit:10;}
	.st2{fill:none;stroke:#513527;stroke-width:0.9392;stroke-miterlimit:10;}
	.st3{fill:none;stroke:#513527;stroke-width:3.7567;stroke-linecap:round;stroke-miterlimit:10;}
	.st4{fill:#513527;}
	.st5{fill:none;stroke:#513527;stroke-width:2.7233;stroke-miterlimit:10;}
	.st6{fill:none;stroke:#513527;stroke-width:2.7233;stroke-linecap:round;stroke-miterlimit:10;}
	.st7{fill:#513527;stroke:#513527;stroke-width:3.2972;stroke-miterlimit:10;}
	.st8{fill:none;stroke:#513527;stroke-width:4;stroke-linecap:round;stroke-miterlimit:10;}
	.st9{fill:#FFFFFF;stroke:#513527;stroke-width:3.7567;stroke-linecap:round;stroke-miterlimit:10;}
</style>
<g id="clouds_2_">
	<path class="st0" d="M52.1,80.8c0-10.4,4.3-19.8,11.2-26.6c-2.1-0.6-4.3-0.9-6.6-0.9c-10.1,0-18.8,6.4-22.2,15.3
		C32,67,29,66.1,25.8,66.1c-9.5,0-17.3,7.7-17.3,17.3c0,2.2,0.4,4.2,1.1,6.1h27H42h11.2C52.5,86.7,52.1,83.8,52.1,80.8z"/>
	<path id="cloud_8_" class="st0" d="M137.8,63.8c-5,0-9.7,1.4-13.7,3.7c-5.3-14-18.9-24-34.8-24c-20.5,0-37.2,16.7-37.2,37.2
		c0,7.2,2.1,14,5.6,19.7h54.7h8.4h42.3c1.1-3,1.7-6.2,1.7-9.6C164.9,75.9,152.8,63.8,137.8,63.8z"/>
</g>
</svg>
