<?xml version="1.0" encoding="utf-8"?>
<!-- Generator: Adobe Illustrator 20.0.0, SVG Export Plug-In . SVG Version: 6.00 Build 0)  -->
<svg version="1.1" xmlns="http://www.w3.org/2000/svg" xmlns:xlink="http://www.w3.org/1999/xlink" x="0px" y="0px"
	 viewBox="0 0 64 64" style="enable-background:new 0 0 64 64;" xml:space="preserve">
<style type="text/css">
	.st0{display:none;}
	.st1{display:inline;fill:#1A4770;}
	.st2{display:inline;}
	.st3{fill:#1A4770;}
</style>
<g id="Logo" class="st0">
</g>
<g id="Shrink">
	<path id="Fork_1_" class="st3" d="M16.9,54.5c0.1,0,0.3,0,0.4,0c0.7-0.1,1.2-0.6,1.7-1.1c1.5-1.5,3-3,4.4-4.6
		c1.5-1.7,11.9-13.4,12.4-14.2c0.6-0.7,6.2-6.3,6.9-6.7c0.8-0.4,2.9,0,4.3-0.9c1.4-0.9,8.5-9.2,10.3-12.4c0,0,0-0.5-0.3-0.1
		c-0.3,0.4-0.3,0.4-0.3,0.4s-6.1,6.5-6.6,7.1c-0.5,0.6-1.3,1.4-1.5,1.5c-0.2,0.1-0.6-0.3-0.2-0.7c0.4-0.4,7.4-8.4,7.6-8.7
		c0.3-0.3,0.6-1-0.1-0.4c-0.7,0.6-7.9,7.9-8.1,8.1c-0.2,0.2-0.5,0.4-0.7,0.5c-0.2,0-0.5-0.4,0.1-0.9c0.5-0.5,7.2-8,7.5-8.3
		c0.2-0.2,0.5-0.6,0.5-0.6c-0.1-0.1-0.2-0.2-0.6,0.2c-0.4,0.3-8.1,8-8.3,8.1c-0.2,0.2-0.4,0.2-0.6,0.1c-0.1-0.1-0.3-0.2,0.1-0.7
		c0.4-0.4,7.9-8.6,8.1-8.8c0,0,0.1-0.1,0-0.2c-0.1-0.1-0.2-0.1-0.4,0c-0.2,0.1-8.8,7.9-9.7,9c-0.9,1.1-1.8,1.7-2,2.9
		c-0.2,1.2,0,2.4-0.5,3.1c-0.6,0.7-4.7,5.4-6.7,7.2c-0.6,0.5-1.2,1.1-1.8,1.6c-1.1,0.9-2.1,1.8-3.2,2.8c-1.3,1.2-2.6,2.3-4,3.5
		c-1.4,1.2-2.7,2.4-4.1,3.6c-1.2,1.1-2.4,2.2-3.6,3.3c-0.8,0.8-1.7,1.6-2.4,2.5c-0.4,0.5-0.8,0.9-0.8,1.6c0,0.1,0,0.2,0,0.3
		C15,53.4,16,54.4,16.9,54.5z"/>
	<path id="Knife_1_" class="st3" d="M53.9,54.4c0,0-0.1,0-0.1,0.1c-0.6,0.2-1.1,0.1-1.6-0.3c-1-0.9-19.9-20.2-20.1-20.4
		c-0.2-0.2-0.5-0.3-1-0.7c-0.5-0.4-1.7-0.6-2.6-0.4c-0.9,0.2-2.2-1.3-3.1-2.1c-0.9-0.8-12.8-13.2-12.8-16.4c0,0,0.1-1,0.8-1.5
		c0.7-0.5,1.5-0.1,2.4,1c1,1.1,14.9,15.4,16,16.5c1.2,1.1,6.6,6.5,9.3,8.8c2.7,2.4,11.9,10.3,13.4,12c0.5,0.5,1,1.2,0.8,2
		C55.1,53.6,54.5,54.1,53.9,54.4z"/>
	<g id="Taco_1_">
		<path class="st3" d="M43.3,52.1c-0.6-1.2-1.6-2.4-2.9-3.3c-1.6-1.1-3-1.7-5.4-2c-0.2,0-0.5-0.1-0.8-0.1c-1.2,0-2,0.8-2.4,1.2
			c-0.4-0.2-0.8-0.3-1.1-0.3c-1,0-1.5,0.7-1.8,1.1c-0.3-0.1-0.8-0.2-1.2,0.4c-0.3,0.5-0.1,1.1,0.1,1.5c-0.5,0.3-0.8,0.6-0.9,1
			c-0.1,0.6,0.4,1.1,0.6,1.3c-0.5,1.2-0.7,2.4-0.8,3.3c0,0.1,0,0.2,0.1,0.2c0.1,0.1,0.1,0.1,0.2,0.1c0,0,16.2,0,16.2,0
			c0.4,0,0.5,0,0.8-0.3C44.5,55.4,43.8,53.2,43.3,52.1z M27.4,51.6c0-0.3,0.5-0.6,0.8-0.7c0.1,0,0.1-0.1,0.2-0.2
			c0-0.1,0-0.2-0.1-0.3c-0.1-0.2-0.5-0.8-0.3-1.1c0.2-0.3,0.3-0.2,0.6-0.1c0,0,0.1,0,0.1,0c0.1,0,0.3,0,0.3-0.2c0,0,0.4-1,1.4-1
			c0.3,0,0.7,0.1,1.1,0.3c0.1,0.1,0.3,0,0.4-0.1c0,0,0.9-1.2,2.1-1.2c0.7,0,1.2,0.3,1.6,0.8c0.3,0.4,0.3,0.8,0.3,0.8l0,0v0
			c0,0.1,0.1,0.2,0.1,0.2c0.1,0.1,0.2,0.1,0.3,0c0.2-0.1,1-0.4,1.4-0.1c0.5,0.4,0.6,1.1,0.6,1.2c0,0.1,0,0.2,0.1,0.2
			c0.1,0.1,0.2,0.1,0.3,0.1c0,0,0.6-0.1,0.9,0.2c0.2,0.3,0.1,0.8,0,1c0,0.1,0,0.2,0,0.3c0.1,0.1,0.2,0.1,0.3,0.1c0,0,0.7-0.1,1,0.3
			c0.2,0.3-0.4,0.8-0.4,0.8c-0.1,0.1-0.1,0.2-0.1,0.3c0,0.1,0.1,0.2,0.2,0.2c0,0,0.8,0.2,1.1,0.8c0.2,0.4-0.2,1-0.4,1.3
			c-0.1,0-0.3,0-0.6,0c-0.6-1.7-1.6-3.4-2.8-4.6c-1.4-1.4-2.9-2.1-4.4-2.1c-1.3,0-2.5,0.3-3.5,0.9c-0.9,0.5-1.7,1.3-2.2,2.1
			c0,0.1-0.1,0.1-0.1,0.2C27.6,52.1,27.4,51.9,27.4,51.6z M27.3,55.8c0.1-0.8,0.3-1.9,0.7-2.9c0-0.1,0.1-0.2,0.1-0.3
			c0.1-0.1,0.1-0.2,0.1-0.3c0.7-1.3,2.5-2.7,5.2-2.7c1.3,0,2.7,0.7,3.9,2c1.1,1.1,2,2.6,2.6,4.2H27.3z M43.6,55.7
			c-0.1,0.2-0.3,0.2-0.7,0.2c-0.1,0-0.9,0-0.9,0c0.3-0.4,0.5-1,0.2-1.6c-0.2-0.5-0.6-0.7-1-0.9c0.3-0.3,0.4-0.8,0.2-1.2
			c-0.3-0.4-0.8-0.6-1.1-0.6c0.1-0.3,0.1-0.8-0.2-1.2c-0.3-0.4-0.8-0.5-1.2-0.4c0-0.2-0.1-0.4-0.1-0.4c-0.1-0.3-0.3-0.7-0.7-1
			c-0.5-0.4-1.2-0.2-1.6-0.1c-0.1-0.2-0.1-0.5-0.3-0.7c0-0.1-0.1-0.1-0.1-0.2c3.4,0.7,5.8,2.9,6.7,4.8
			C43.8,54.6,43.7,55.5,43.6,55.7z"/>
		<path class="st3" d="M36.2,51.8c-0.5,0-0.9,0.4-0.9,0.9c0,0.5,0.4,0.9,0.9,0.9c0.5,0,0.9-0.4,0.9-0.9
			C37.1,52.2,36.7,51.8,36.2,51.8z M36.2,53c-0.2,0-0.3-0.1-0.3-0.3c0-0.2,0.1-0.3,0.3-0.3c0.2,0,0.3,0.1,0.3,0.3
			C36.5,52.9,36.4,53,36.2,53z"/>
		<path class="st3" d="M34.7,53.5c-0.5,0-0.9,0.4-0.9,0.9c0,0.5,0.4,0.9,0.9,0.9c0.5,0,0.9-0.4,0.9-0.9
			C35.6,53.9,35.2,53.5,34.7,53.5z M34.7,54.7c-0.2,0-0.3-0.1-0.3-0.3c0-0.2,0.1-0.3,0.3-0.3c0.2,0,0.3,0.1,0.3,0.3
			C35,54.5,34.8,54.7,34.7,54.7z"/>
		<path class="st3" d="M35.1,51.9c0-0.5-0.4-0.9-0.9-0.9c-0.5,0-0.9,0.4-0.9,0.9c0,0.5,0.4,0.9,0.9,0.9
			C34.7,52.8,35.1,52.4,35.1,51.9z M33.8,51.9c0-0.2,0.1-0.3,0.3-0.3c0.2,0,0.3,0.1,0.3,0.3c0,0.2-0.1,0.3-0.3,0.3
			C34,52.2,33.8,52.1,33.8,51.9z"/>
	</g>
	<g id="Fish_1_">
		<path class="st3" d="M23.1,34.5c-0.5,0-0.8,0.4-0.8,0.8c0,0.5,0.4,0.8,0.8,0.8c0.5,0,0.8-0.4,0.8-0.8
			C23.9,34.8,23.5,34.5,23.1,34.5z M23.1,35.5c-0.1,0-0.2-0.1-0.2-0.2c0-0.1,0.1-0.2,0.2-0.2c0.1,0,0.2,0.1,0.2,0.2
			C23.3,35.4,23.2,35.5,23.1,35.5z"/>
		<path class="st3" d="M26.2,35.9c0.1-0.2,0.1-0.3,0.1-0.5c0-0.2-0.1-0.4-0.3-0.6c-0.1-0.1-0.3-0.2-0.5-0.2
			c-0.6-0.8-2.1-1.6-3.4-1.8c0,0,0,0,0,0c0,0,0,0,0,0c-0.3-0.1-0.7-0.1-1-0.1c-0.4-0.6-1-0.9-1.7-1.1c-0.6-0.1-1.8,0-2.8,0.2
			c-1.4,0.3-2.2,0.6-2.4,1c-0.1,0.2-0.1,0.4,0.2,0.7c0.1,0,0.1,0.1,0.2,0.1c0.1,0.1,0.3,0.2,0.3,0.3c-1.8,0.8-3.3,1.8-4.1,2.5
			c-0.7-0.6-2.1-1.3-3.7-1.3c0,0,0,0,0,0c-0.5,0-0.8,0.1-0.9,0.3c-0.1,0.1-0.1,0.3-0.1,0.4c0.1,0.4,0.6,1.2,1.4,1.6
			c-0.7,0.6-0.9,1.4-0.9,1.9c0,0.2,0.1,0.3,0.1,0.4c0.1,0.1,0.2,0.2,0.4,0.1c0.1,0,0.3,0,0.4-0.1c0,0,0,0,0.1,0
			c1.6-0.4,2.8-1.2,3.4-1.9c0.8,0.3,3.4,1.4,6,1.7c-0.1,0-0.2,0.1-0.2,0.1c-0.4,0.2-0.4,0.5-0.3,0.6c0.1,0.5,0.7,0.9,1.5,0.9
			c0.3,0,0.5,0,0.8-0.1c0.8-0.3,1.4-0.9,1.7-1.6c0.9-0.1,1.7-0.4,2.5-0.7v0v0c0,0,0,0,0,0c0.6-0.2,1.2-0.6,1.3-0.7c0,0,0,0,0,0
			c0.2-0.1,0.4-0.2,0.5-0.4c0,0,0,0,0,0c0.3-0.2,0.5-0.5,0.7-0.8c0.1,0,0.1,0,0.2,0c0.4,0,0.8-0.5,0.7-0.9
			C26.3,36,26.3,35.9,26.2,35.9z M16.8,32.5c1-0.2,2.1-0.3,2.4-0.2c0.3,0.1,0.7,0.2,0.9,0.5c-0.6,0-1.2,0.1-1.8,0.1
			c-0.9,0.1-1.9,0.4-2.8,0.8c-0.1-0.2-0.3-0.3-0.6-0.5c0,0-0.1,0-0.1-0.1C15.1,32.9,15.7,32.7,16.8,32.5z M7.4,39.2
			C7.4,39.2,7.4,39.2,7.4,39.2c-0.1,0-0.2,0-0.2,0.1c0-0.6,0.3-1.3,1.1-1.6c0.1-0.1,0.2-0.2,0.2-0.3c0-0.1-0.1-0.3-0.3-0.3
			c-0.7-0.1-1.4-0.9-1.5-1.3c0.1,0,0.2,0,0.4,0c1.3,0,2.5,0.6,3.2,1.1c-0.1,0.1-0.2,0.3-0.1,0.5c0,0.1,0.1,0.2,0.2,0.3
			C9.9,38.2,8.9,38.9,7.4,39.2z M18.4,40.5c-0.2,0.1-0.3,0.1-0.5,0.1c-0.5,0-0.8-0.2-0.9-0.4c0.1-0.1,0.3-0.1,0.5-0.1
			c0.3-0.1,0.7-0.2,1.1-0.4c0.4-0.2,0.6-0.6,0.8-0.8c0.2-0.2,0.3-0.4,0.4-0.4c0,0,0.1,0,0.1,0c0,0,0.1,0.3,0,0.6c0,0,0,0.1,0,0.1
			C19.6,39.6,19.2,40.2,18.4,40.5z M20.5,38.8c0-0.3,0-0.6-0.2-0.8c-0.2-0.2-0.4-0.3-0.7-0.2c-0.4,0.1-0.6,0.4-0.8,0.7
			c-0.1,0.2-0.2,0.4-0.4,0.5c0,0,0,0,0,0c-3.3,0.1-7.4-1.8-7.4-1.8c0,0-0.1-0.1,0-0.1l0,0c0.8-0.6,2.5-1.8,4.5-2.7
			c1-0.4,2-0.7,3-0.9c0.8-0.1,1.6-0.2,2.4-0.1c0.2,0,0.3,0,0.5,0c-0.5,0.6-0.9,1.3-0.8,2.4c0.1,1.1,0.6,2.1,1.4,2.7
			C21.5,38.6,21,38.7,20.5,38.8z M25.7,35.6c-0.2,0.2-0.1,0.4,0,0.5c0,0,0,0,0,0.1c0,0.1-0.1,0.2-0.2,0.2c0,0-0.1,0-0.1,0
			c-0.2-0.1-0.4,0-0.5,0.1c-0.2,0.3-0.4,0.5-0.7,0.8c0,0,0,0,0,0c-0.1,0.1-0.3,0.2-0.4,0.3c0,0,0,0,0,0c-0.1,0.1-0.5,0.3-0.9,0.5
			c0,0,0,0,0,0c0,0,0,0-0.1,0c-0.8-0.5-1.4-1.4-1.5-2.5c-0.1-1,0.4-1.6,0.9-2.2c1.3,0.2,2.6,1,2.9,1.6c0,0.1,0.2,0.2,0.4,0.2l0,0
			c0.1,0,0.1,0,0.1,0c0,0,0.1,0.1,0.1,0.1C25.7,35.5,25.7,35.5,25.7,35.6z"/>
	</g>
	<path id="Shake_1_" class="st3" d="M39.3,10.4l-0.4-0.7c-0.1-0.1-0.2-0.2-0.4-0.1l-2,1.1l-0.1,0.1c-0.1,0-0.1,0.1-0.1,0.1L36.3,11
		l-0.9,2.2c-0.3-0.1-0.6-0.1-0.9-0.1c-0.9,0-1.8,0.3-2.5,0.9c-0.7,0.6-1.1,1.3-1.3,2.2c-0.3,0.2-0.5,0.5-0.5,0.8
		c0,0.2,0.1,0.4,0.2,0.6l1.3,8.4c0,0.1,0.1,0.2,0.3,0.2H37c0.1,0,0.2-0.1,0.3-0.2l1.3-8.4c0.1-0.2,0.2-0.5,0.2-0.6
		c0-0.3-0.2-0.6-0.5-0.8c0,0,0,0-0.1,0c-0.2-1-0.8-1.9-1.7-2.4l0.8-2l1.8-1c0.1,0,0.1-0.1,0.1-0.2C39.4,10.6,39.4,10.5,39.3,10.4z
		 M36.8,25.8h-4.6L31,17.9h4.5c0.1,0,0.3-0.1,0.3-0.3c0-0.1-0.1-0.3-0.3-0.3h-4.6c0,0,0,0,0,0c0,0-0.1-0.2-0.1-0.3
		c0-0.1,0.1-0.3,0.2-0.3H38c0.1,0.1,0.2,0.3,0.2,0.3c0,0.1-0.1,0.2-0.1,0.3c0,0,0,0,0,0h-0.9c-0.1,0-0.3,0.1-0.3,0.3
		c0,0.1,0.1,0.3,0.3,0.3H38L36.8,25.8z M37.1,11.3c-0.1,0-0.1,0.1-0.1,0.1l-1,2.3c-0.1,0.1,0,0.3,0.1,0.3c0.8,0.5,1.4,1.2,1.6,2.1
		h-6.5c0.4-1.5,1.7-2.5,3.2-2.5c0.3,0,0.7,0,1,0.1c0.1,0,0.3,0,0.3-0.2l1-2.5l1.8-1l0.1,0.2L37.1,11.3z"/>
	<path id="Fries_1_" class="st3" d="M60.5,35c-0.2,0-1,0-1.1,0l0.7-1.6c0-0.1,0-0.2,0-0.2c0-0.1-0.1-0.1-0.2-0.1h-2l0.8-2.1
		c0-0.1,0-0.2,0-0.2c-0.1-0.1-0.1-0.1-0.2-0.1l-1.5,0.2l0.2-1.7c0-0.1,0-0.1-0.1-0.2c-0.1-0.1-0.1-0.1-0.2-0.1l-2,0.2l-0.3-0.9
		c0-0.1-0.1-0.1-0.1-0.1c-0.1,0-0.1,0-0.2,0l-1.8,0.8l0-0.1c0-0.1-0.1-0.1-0.1-0.1c-0.1,0-0.1,0-0.2,0l-2.3,0.9
		c-0.1,0-0.2,0.2-0.1,0.3l0.2,0.6l-1.5,0c-0.1,0-0.2,0-0.2,0.1c0,0.1-0.1,0.2,0,0.2l0.6,1.6h-1.3c-0.1,0-0.1,0-0.2,0.1
		c0,0.1-0.1,0.1,0,0.2l0.7,2.6c-0.3,0-0.7,0-1,0c-0.1,0-0.2,0.1-0.2,0.2c0,1.7,0,3,0.6,4.1c0.5,1,1.5,1.7,3.1,2.5
		c-0.2,0.2-0.3,0.5-0.3,0.9c0,0.1,0.1,0.2,0.2,0.2h6.6c0.1,0,0.2-0.1,0.2-0.2c0-0.4-0.1-0.7-0.3-0.9c1.7-0.8,2.8-1.7,3.4-2.8
		c0.6-1.2,0.7-2.5,0.7-3.8C60.7,35.1,60.6,35,60.5,35z M59.5,33.5L58.8,35c-0.6,0-1.1,0-1.7,0l0.5-1.5H59.5z M56.6,35
		c-0.6,0-1.1,0-1.7,0v0l1.5-3.7l1.6-0.2L56.6,35z M54.5,31.4l0,3.6c-0.6,0-1.3,0-2,0v-3L54.5,31.4z M56.4,30.7l-0.2,0
		c-0.1,0-0.2,0.1-0.2,0.2L55,33.6V31c0-0.1,0-0.2-0.1-0.2c-0.1,0-0.1-0.1-0.2,0l-0.1,0l0.1-1.5l1.9-0.1L56.4,30.7z M54.1,28.4
		l0.2,0.6c-0.1,0-0.1,0.1-0.1,0.2L54,31l-0.8,0.2l-0.7-2.2L54.1,28.4z M50.1,29.7l1.9-0.8l0,0.1v0l0.8,2.4l-0.6,0.2
		c-0.1,0-0.2,0.1-0.2,0.2v1.3l-1.1-2.9c0-0.1-0.1-0.2-0.2-0.2l-0.5,0L50.1,29.7z M48.5,30.6l2,0l1.5,3.9v0.4c-0.5,0-0.9,0-1.4,0
		l-0.9-2.7c0-0.1-0.1-0.2-0.2-0.2h-0.4L48.5,30.6z M47.6,32.5h1.7l0.8,2.4c-0.6,0-1.3,0-1.9,0L47.6,32.5z M56.1,41.6
		C56.1,41.6,56.1,41.6,56.1,41.6l-1,0c-0.1,0-0.2,0.1-0.2,0.2c0,0.1,0.1,0.2,0.2,0.2h1.1c0.1,0,0.2,0.2,0.2,0.4h-6
		c0-0.3,0.2-0.4,0.2-0.4h2.6c0.1,0,0.2-0.1,0.2-0.2c0-0.1-0.1-0.2-0.2-0.2h-2.3c0,0,0,0,0,0c-1.8-0.8-2.8-1.5-3.3-2.5
		c-0.5-0.9-0.6-1.9-0.6-3.7c2.4,0,13.1,0,13.3,0C60.2,38.1,59.9,40,56.1,41.6z"/>
</g>
<g id="Guides">
</g>
</svg>
