<?xml version="1.0" encoding="utf-8"?>
<!-- Generator: Adobe Illustrator 18.1.0, SVG Export Plug-In . SVG Version: 6.00 Build 0)  -->
<svg version="1.1" xmlns="http://www.w3.org/2000/svg" xmlns:xlink="http://www.w3.org/1999/xlink" x="0px" y="0px"
	 viewBox="0 0 160 160" enable-background="new 0 0 160 160" xml:space="preserve">
<g id="Large">
</g>
<g id="Small">
	<g id="small">
		<g id="Bridge_2_">
			<line fill="none" stroke="#000000" stroke-width="0.5404" stroke-miterlimit="10" x1="106.1" y1="44.4" x2="99.3" y2="48.7"/>
			<line fill="none" stroke="#000000" stroke-width="0.5404" stroke-miterlimit="10" x1="105.9" y1="57.8" x2="99.3" y2="48.7"/>
			<line fill="none" stroke="#000000" stroke-width="0.5404" stroke-miterlimit="10" x1="92.9" y1="57.8" x2="99.3" y2="48.7"/>
			<line fill="none" stroke="#000000" stroke-width="0.5404" stroke-miterlimit="10" x1="92.9" y1="51.2" x2="99.3" y2="48.7"/>
			<line fill="none" stroke="#000000" stroke-width="0.5404" stroke-miterlimit="10" x1="92.9" y1="57.8" x2="86.3" y2="52"/>
			<line fill="none" stroke="#000000" stroke-width="0.5404" stroke-miterlimit="10" x1="79.7" y1="57.8" x2="86.3" y2="52"/>
			<line fill="none" stroke="#000000" stroke-width="0.5404" stroke-miterlimit="10" x1="79.7" y1="57.8" x2="73.3" y2="53.6"/>
			<line fill="none" stroke="#000000" stroke-width="0.5404" stroke-miterlimit="10" x1="86.3" y1="52" x2="92.9" y2="51.2"/>
			<line fill="none" stroke="#000000" stroke-width="0.5404" stroke-miterlimit="10" x1="79.7" y1="52.9" x2="86.3" y2="52"/>
			<g>
				<g>
					<path d="M73.1,53.9c2.2-0.2,4.4-0.5,6.6-0.7c0.3,0,0.3-0.6,0-0.5c-2.2,0.2-4.4,0.5-6.6,0.7C72.8,53.4,72.8,53.9,73.1,53.9
						L73.1,53.9z"/>
				</g>
			</g>
			<g>
				<g>
					<path d="M105.8,44.8c2.2,1.4,4.4,2.8,6.6,4.1c0.3,0.2,0.6-0.3,0.3-0.5c-2.2-1.4-4.4-2.8-6.6-4.1
						C105.8,44.1,105.5,44.6,105.8,44.8L105.8,44.8z"/>
				</g>
			</g>
			<line fill="none" stroke="#000000" stroke-width="0.5404" stroke-miterlimit="10" x1="106" y1="57.7" x2="112.5" y2="48.7"/>
			<line fill="none" stroke="#000000" stroke-width="0.5404" stroke-miterlimit="10" x1="112.5" y1="48.7" x2="119" y2="51.2"/>
			<line fill="none" stroke="#000000" stroke-width="0.5404" stroke-miterlimit="10" x1="119" y1="51.2" x2="125.4" y2="52"/>
			<line fill="none" stroke="#000000" stroke-width="0.5404" stroke-miterlimit="10" x1="125.4" y1="52" x2="131.9" y2="52.9"/>
			<line fill="none" stroke="#000000" stroke-width="0.5404" stroke-miterlimit="10" x1="112.5" y1="48.7" x2="119" y2="57.8"/>
			<line fill="none" stroke="#000000" stroke-width="0.5404" stroke-miterlimit="10" x1="119" y1="57.8" x2="125.4" y2="52"/>
			<line fill="none" stroke="#000000" stroke-width="0.5404" stroke-miterlimit="10" x1="125.4" y1="52" x2="131.9" y2="57.8"/>
			<g>
				<g>
					<path d="M131.9,53.2c2.2,0.2,4.4,0.5,6.6,0.7c0.3,0,0.3-0.5,0-0.5c-2.2-0.2-4.4-0.5-6.6-0.7C131.6,52.6,131.6,53.1,131.9,53.2
						L131.9,53.2z"/>
				</g>
			</g>
			<line fill="none" stroke="#000000" stroke-width="0.5404" stroke-miterlimit="10" x1="138.6" y1="53.6" x2="131.9" y2="57.8"/>
			<line fill="none" stroke="#000000" stroke-width="0.5404" stroke-miterlimit="10" x1="73.3" y1="53.6" x2="73.3" y2="57.8"/>
			<line fill="none" stroke="#000000" stroke-width="0.5404" stroke-miterlimit="10" x1="79.7" y1="52.9" x2="79.7" y2="57.8"/>
			<line fill="none" stroke="#000000" stroke-width="0.5404" stroke-miterlimit="10" x1="86.3" y1="52" x2="86.3" y2="57.8"/>
			<line fill="none" stroke="#000000" stroke-width="0.5404" stroke-miterlimit="10" x1="92.9" y1="51.2" x2="92.9" y2="57.8"/>
			<line fill="none" stroke="#000000" stroke-width="0.5404" stroke-miterlimit="10" x1="99.3" y1="48.7" x2="99.3" y2="57.8"/>
			<line fill="none" stroke="#000000" stroke-width="0.5404" stroke-miterlimit="10" x1="105.9" y1="44.5" x2="105.9" y2="57.8"/>
			<line fill="none" stroke="#000000" stroke-width="0.5404" stroke-miterlimit="10" x1="112.5" y1="48.7" x2="112.5" y2="57.8"/>
			<line fill="none" stroke="#000000" stroke-width="0.5404" stroke-miterlimit="10" x1="119" y1="51.2" x2="119" y2="57.8"/>
			<line fill="none" stroke="#000000" stroke-width="0.5404" stroke-miterlimit="10" x1="125.4" y1="52" x2="125.4" y2="57.7"/>
			<line fill="none" stroke="#000000" stroke-width="0.5404" stroke-miterlimit="10" x1="131.9" y1="52.9" x2="131.9" y2="57.8"/>
			<line fill="none" stroke="#000000" stroke-width="0.5404" stroke-miterlimit="10" x1="138.5" y1="53.6" x2="138.5" y2="57.8"/>
			<g>
				<g>
					<path d="M138.3,53.8c2.1,1.4,4.3,2.8,6.4,4.2c0.3,0.2,0.6-0.3,0.3-0.5c-2.1-1.4-4.3-2.8-6.4-4.2
						C138.3,53.2,138,53.6,138.3,53.8L138.3,53.8z"/>
				</g>
			</g>
			<g>
				<g>
					<path d="M73,53.4c-2.1,1.4-4.3,2.8-6.4,4.2c-0.3,0.2,0,0.7,0.3,0.5c2.1-1.4,4.3-2.8,6.4-4.2C73.6,53.6,73.3,53.2,73,53.4
						L73,53.4z"/>
				</g>
			</g>
			<line fill="none" stroke="#000000" stroke-width="0.5404" stroke-miterlimit="10" x1="66.8" y1="57.8" x2="144.9" y2="57.8"/>
		</g>
		<g id="Port_2_">
			<path fill="#AA222F" d="M27.8,65.5c9.9,0,14.2,5.9,14.2,15.4v7.6c0,10-4.7,15.2-14.7,15.2H21v24.9h-7V65.5H27.8z M27.2,97.4
				c5.2,0,7.8-2.4,7.8-8.5v-8.4c0-5.8-2.1-8.7-7.2-8.7H21v25.5H27.2z"/>
			<path fill="#AA222F" d="M47.2,80.8c0-9.7,4.8-15.9,14.4-15.9c9.7,0,14.5,6.2,14.5,15.9v32.7c0,9.6-4.8,15.9-14.5,15.9
				c-9.7,0-14.4-6.3-14.4-15.9V80.8z M54.1,113.8c0,5.8,2.4,9.1,7.5,9.1c5.1,0,7.5-3.3,7.5-9.1V80.4c0-5.7-2.3-9.1-7.5-9.1
				c-5.1,0-7.5,3.4-7.5,9.1V113.8z"/>
			<path fill="#AA222F" d="M96.9,65.5c9.9,0,14.1,5.1,14.1,14.4v5.1c0,6.9-2.4,11.3-7.8,13c5.8,1.7,7.9,6.4,7.9,13.2v9.8
				c0,2.8,0.1,5.4,1.3,7.6h-7.1c-0.8-1.8-1.2-3.4-1.2-7.7v-9.9c0-7.1-3.3-9.4-9.2-9.4h-5v27h-7V65.5H96.9z M95.1,95.3
				c5.6,0,8.9-1.8,8.9-8.7v-6c0-5.7-2.1-8.7-7.3-8.7h-6.9v23.4H95.1z"/>
			<path fill="#AA222F" d="M127.5,128.7V71.9h-11.6v-6.4H146v6.4h-11.6v56.7H127.5z"/>
		</g>
		<g id="The_2_">
			<path fill="#1A4770" d="M18.2,42.4c-2.6,0-4-1-3.9-3.7c0.1-5,4.1-9.7,13.3-9.5c1.7,0,6.3,1.1,10.1,1.1c1.8,0,3.5-0.2,4.5-0.8
				c-0.9,1.6-1.5,2.7-3.3,11.2c1.6-1.8,3.3-2.1,4.5-2.1c2.4,0,4.1,1.3,4.1,4.3c0,3-1.9,7.5-1.9,9.6c0,0.9,0.4,1.6,1.5,1.6
				c1.6,0,2.3-1.3,3.2-3.2l1.6,0c-2.2,6.1-5.1,6.8-7.1,6.8c-3.3,0-4.4-2.2-4.4-4.3c0-2.5,1.8-7.1,1.8-9.5c0-1.2-0.4-1.9-1.3-1.9
				c-1.3,0-2.3,1.4-2.9,3.2c-0.7,3.2-1.5,7.2-2.5,12.2l-5.4-0.1l5.5-23.8c-1.5-0.1-3.2-0.5-4.9-0.7L25,57.2l-5.4-0.1l5.7-24.8
				c-4.2,0.1-7.5,1.6-7.6,7.5C17.7,41.8,18.2,42.1,18.2,42.4z"/>
			<path fill="#1A4770" d="M57.5,54.3c1.4,0,3.2-0.9,4.4-1.9c-0.8,4.3-3.6,5.5-6.6,5.4c-3.5-0.1-5.8-1.8-5.7-6
				c0.1-4.3,2.6-13.3,10.3-13.2c3.3,0,4.1,1.8,4.1,3.7c-0.1,4.3-4.2,7.6-8.7,7.8c0,0.4-0.1,0.8-0.1,1.1
				C55.2,53.6,56.2,54.3,57.5,54.3z M60.2,40.6c-1.9,0-3.8,4.1-4.6,7.6c2.9-0.1,5.5-2.9,5.6-6.1C61.1,41.3,60.9,40.7,60.2,40.6z"/>
		</g>
	</g>
</g>
</svg>
