<?xml version="1.0" encoding="utf-8"?>
<!-- Generator: Adobe Illustrator 18.1.0, SVG Export Plug-In . SVG Version: 6.00 Build 0)  -->
<svg version="1.1" xmlns="http://www.w3.org/2000/svg" xmlns:xlink="http://www.w3.org/1999/xlink" x="0px" y="0px"
	 viewBox="0 0 115.2 115.2" enable-background="new 0 0 115.2 115.2" xml:space="preserve">
<g id="Logo" display="none">
</g>
<g id="Shrink">
	<g>
		<path id="Fork_1_" fill="#1A4770" d="M28.4,100.7c0.2,0,0.6,0,0.8-0.1c1.4-0.2,2.2-1.2,3.2-2.1c2.9-2.9,5.8-5.8,8.5-8.8
			c2.9-3.2,22.8-25.8,23.9-27.2c1.1-1.4,11.9-12,13.3-12.9c1.4-0.8,5.5,0,8.2-1.7c2.7-1.7,16.4-17.6,19.7-23.8c0,0,0-0.9-0.6-0.2
			c-0.6,0.7-0.6,0.7-0.6,0.7S93.2,37.2,92.2,38.2c-1,1.1-2.6,2.7-2.9,2.8c-0.3,0.2-1.2-0.6-0.4-1.3c0.8-0.8,14.2-16.1,14.6-16.7
			c0.5-0.6,1.2-2-0.1-0.8c-1.3,1.2-15.1,15.1-15.5,15.5c-0.4,0.4-0.9,0.8-1.3,0.9c-0.4,0.1-0.9-0.7,0.1-1.7c1-1,13.9-15.5,14.4-15.9
			c0.4-0.4,1-1.1,0.9-1.2c-0.1-0.1-0.4-0.3-1.2,0.4c-0.8,0.7-15.6,15.3-16,15.7c-0.4,0.3-0.8,0.4-1.1,0.2c-0.3-0.2-0.5-0.4,0.3-1.3
			c0.8-0.9,15.2-16.5,15.5-16.8c0,0,0.3-0.3,0.1-0.5c-0.2-0.2-0.4-0.2-0.8,0.1c-0.4,0.3-16.9,15.2-18.7,17.3
			c-1.8,2.1-3.4,3.2-3.8,5.6c-0.4,2.4,0.1,4.6-1,6c-1.1,1.4-9.1,10.3-12.8,13.8c-1.1,1-2.2,2-3.4,3c-2,1.8-4.1,3.5-6.1,5.3
			c-2.5,2.2-5.1,4.4-7.6,6.6c-2.6,2.3-5.3,4.6-7.9,7c-2.3,2.1-4.6,4.2-6.9,6.4c-1.6,1.5-3.2,3.1-4.7,4.7c-0.8,0.9-1.5,1.8-1.5,3.1
			c0,0.2,0.1,0.4,0.1,0.6C24.7,98.6,26.7,100.5,28.4,100.7z"/>
		<path id="Knife_1_" fill="#1A4770" d="M99.6,100.5c-0.1,0-0.2,0.1-0.3,0.1c-1.2,0.4-2.1,0.3-3.1-0.6c-1.9-1.7-38.2-38.8-38.6-39.1
			c-0.4-0.3-1-0.5-1.9-1.3c-1-0.8-3.3-1.2-5-0.8c-1.7,0.4-4.3-2.4-6-4C43,53.2,20.1,29.4,20,23.2c0,0,0.2-1.9,1.5-2.9
			c1.3-1,2.8-0.1,4.7,1.9c1.9,2,28.6,29.7,30.8,31.8c2.2,2.1,12.6,12.4,17.9,17c5.3,4.6,23,19.7,25.8,23c0.9,1,1.9,2.3,1.4,3.8
			C101.8,99,100.7,100,99.6,100.5z"/>
		<g id="Taco_1_">
			<path d="M79.1,92.3c-1.1-2.4-3.1-4.6-5.6-6.4c-3-2.1-5.8-3.3-10.4-3.9c-0.5-0.1-1-0.1-1.6-0.1c-2.2,0-3.9,1.6-4.6,2.3
				c-0.8-0.4-1.5-0.6-2.2-0.6c-1.9,0-3,1.4-3.4,2.2c-0.6-0.2-1.6-0.3-2.3,0.8c-0.6,1-0.2,2.1,0.2,2.8c-1,0.5-1.6,1.2-1.7,1.9
				c-0.2,1.2,0.8,2.2,1.2,2.5c-1,2.3-1.4,4.7-1.5,6.3c0,0.2,0,0.3,0.1,0.4c0.1,0.1,0.3,0.2,0.4,0.2c0,0,31.1,0,31.2,0
				c0.7,0,0.9,0,1.4-0.7C81.6,98.5,80.2,94.5,79.1,92.3z M48.6,91.3c0.1-0.6,0.9-1.1,1.6-1.3c0.2-0.1,0.3-0.2,0.3-0.4
				c0-0.2,0-0.3-0.1-0.5c-0.3-0.3-0.9-1.4-0.5-2.1c0.3-0.5,0.7-0.5,1.2-0.2c0.1,0,0.2,0.1,0.2,0.1c0.3,0.1,0.5-0.1,0.6-0.3
				c0,0,0.8-2,2.6-2c0.6,0,1.3,0.2,2,0.7c0.2,0.1,0.6,0.1,0.7-0.1c0,0,1.7-2.2,4-2.2c1.4,0,2.4,0.5,3,1.5c0.5,0.8,0.6,1.6,0.6,1.6
				l0,0v0c0,0.2,0.1,0.4,0.3,0.5c0.2,0.1,0.4,0.1,0.5,0c0.5-0.2,1.9-0.7,2.7-0.2c0.9,0.7,1.2,2.1,1.2,2.4c0,0.2,0,0.3,0.1,0.4
				c0.1,0.1,0.3,0.2,0.5,0.2c0,0,1.2-0.3,1.7,0.4c0.5,0.6,0.1,1.6,0,2c-0.1,0.2-0.1,0.4,0.1,0.6c0.1,0.2,0.3,0.2,0.5,0.2
				c0,0,1.4-0.2,1.9,0.6c0.4,0.7-0.7,1.5-0.7,1.5c-0.2,0.1-0.3,0.4-0.2,0.6c0.1,0.2,0.2,0.3,0.4,0.4c0.1,0,1.5,0.4,2.1,1.5
				c0.4,0.8-0.4,2-0.8,2.5c-0.2,0-0.6,0-1.1,0c-1.1-3.4-3-6.5-5.4-8.9c-2.6-2.6-5.6-4.1-8.4-4.1c-2.5,0-4.8,0.6-6.8,1.7
				c-1.8,1-3.2,2.4-4.1,4.1c-0.1,0.1-0.1,0.2-0.2,0.4C48.9,92.3,48.6,91.8,48.6,91.3z M48.4,99.4c0.2-1.5,0.6-3.6,1.4-5.5
				c0.1-0.2,0.2-0.4,0.3-0.5c0.1-0.2,0.2-0.4,0.3-0.5c1.4-2.5,4.8-5.2,10-5.2c2.5,0,5.2,1.3,7.6,3.8c2.1,2.2,3.9,5,5,8.1H48.4z
				 M79.8,99.1c-0.3,0.4-0.5,0.4-1.3,0.4c-0.2,0-1.8,0-1.8,0c0.5-0.8,1-1.9,0.4-3c-0.4-0.9-1.2-1.4-1.9-1.7c0.5-0.6,0.9-1.5,0.3-2.3
				c-0.5-0.9-1.5-1.1-2.2-1.1c0.1-0.7,0.2-1.6-0.4-2.3c-0.6-0.8-1.6-0.9-2.2-0.9c-0.1-0.4-0.2-0.7-0.2-0.7c-0.2-0.6-0.6-1.4-1.4-2
				c-1-0.7-2.3-0.5-3.1-0.2c-0.1-0.4-0.3-0.9-0.6-1.4c-0.1-0.1-0.2-0.2-0.3-0.4c6.6,1.4,11.2,5.5,12.9,9.3
				C80.1,97.1,80,98.8,79.8,99.1z"/>
			<path d="M65.5,91.7c-0.9,0-1.7,0.8-1.7,1.7c0,1,0.8,1.7,1.7,1.7c1,0,1.7-0.8,1.7-1.7C67.2,92.5,66.5,91.7,65.5,91.7z M65.5,94.1
				c-0.3,0-0.6-0.3-0.6-0.6c0-0.3,0.3-0.6,0.6-0.6c0.3,0,0.6,0.3,0.6,0.6C66.1,93.8,65.8,94.1,65.5,94.1z"/>
			<path d="M62.6,94.9c-1,0-1.7,0.8-1.7,1.7c0,1,0.8,1.7,1.7,1.7c1,0,1.7-0.8,1.7-1.7C64.3,95.7,63.5,94.9,62.6,94.9z M62.6,97.2
				c-0.3,0-0.6-0.3-0.6-0.6c0-0.3,0.3-0.6,0.6-0.6c0.3,0,0.6,0.3,0.6,0.6C63.2,97,62.9,97.2,62.6,97.2z"/>
			<path d="M63.3,91.9c0-1-0.8-1.7-1.7-1.7c-1,0-1.7,0.8-1.7,1.7c0,1,0.8,1.7,1.7,1.7C62.6,93.6,63.3,92.8,63.3,91.9z M61,91.9
				c0-0.3,0.3-0.6,0.6-0.6c0.3,0,0.6,0.3,0.6,0.6c0,0.3-0.3,0.6-0.6,0.6C61.3,92.5,61,92.2,61,91.9z"/>
		</g>
		<g id="Fish_1_">
			<path d="M40.3,62.2c-0.9,0-1.6,0.7-1.6,1.6c0,0.9,0.7,1.6,1.6,1.6c0.9,0,1.6-0.7,1.6-1.6C41.9,62.9,41.1,62.2,40.3,62.2z
				 M40.3,64.2c-0.2,0-0.4-0.2-0.4-0.4c0-0.2,0.2-0.4,0.4-0.4c0.2,0,0.4,0.2,0.4,0.4C40.7,64,40.5,64.2,40.3,64.2z"/>
			<path d="M46.3,64.9c0.2-0.3,0.3-0.6,0.2-1c0-0.4-0.3-0.8-0.6-1.1c-0.3-0.2-0.6-0.3-1-0.3c-1.1-1.5-4-3-6.6-3.4c0,0,0,0-0.1,0
				c0,0,0,0,0,0c-0.6-0.1-1.3-0.2-1.9-0.2c-0.9-1.1-1.9-1.8-3.2-2.1c-1.1-0.3-3.4,0-5.3,0.4c-2.7,0.5-4.2,1.2-4.6,1.9
				c-0.2,0.3-0.2,0.9,0.3,1.3c0.1,0.1,0.2,0.2,0.3,0.3c0.2,0.2,0.5,0.4,0.7,0.5c-3.4,1.6-6.3,3.5-7.9,4.8c-1.3-1.1-4-2.5-7-2.5
				c0,0,0,0,0,0c-0.9,0-1.5,0.2-1.8,0.6c-0.2,0.2-0.3,0.5-0.2,0.8c0.2,0.8,1.2,2.4,2.6,3.1c-1.4,1.1-1.6,2.7-1.7,3.7
				c0,0.4,0.1,0.6,0.3,0.7c0.2,0.2,0.4,0.3,0.8,0.3c0.3,0,0.5-0.1,0.8-0.1c0,0,0.1,0,0.1,0c3.1-0.7,5.5-2.4,6.5-3.7
				c1.5,0.7,6.5,2.7,11.5,3.2c-0.2,0.1-0.3,0.1-0.5,0.2c-0.7,0.4-0.7,0.9-0.7,1.2c0.2,1,1.4,1.8,2.9,1.8c0.5,0,1-0.1,1.5-0.3
				c1.5-0.6,2.7-1.7,3.2-3c1.7-0.3,3.4-0.7,4.8-1.3v0v0c0,0,0,0,0,0c1.1-0.4,2.2-1.2,2.4-1.3c0,0,0,0,0,0c0.3-0.2,0.7-0.5,1-0.7
				c0,0,0,0,0,0c0.6-0.5,1-0.9,1.4-1.4c0.1,0,0.3,0,0.4,0c0.9-0.1,1.5-0.9,1.4-1.7C46.4,65.2,46.4,65,46.3,64.9z M28.2,58.4
				c2-0.4,3.9-0.5,4.7-0.4c0.7,0.2,1.3,0.5,1.8,0.9c-1.1,0-2.2,0.1-3.4,0.3c-1.7,0.3-3.6,0.8-5.5,1.5c-0.2-0.4-0.6-0.7-1.1-1
				c-0.1,0-0.1-0.1-0.2-0.1C24.9,59.2,26.1,58.8,28.2,58.4z M10.2,71.3c0,0-0.1,0-0.1,0c-0.1,0-0.2,0-0.3,0.1
				c0.1-1.1,0.5-2.5,2.1-3.1c0.3-0.1,0.4-0.4,0.4-0.6c0-0.3-0.3-0.5-0.5-0.5c-1.4-0.1-2.6-1.7-2.9-2.4c0.1,0,0.4-0.1,0.8-0.1
				c2.4,0,4.8,1.2,6.1,2.1c-0.2,0.3-0.4,0.6-0.3,1c0.1,0.2,0.3,0.4,0.5,0.6C15,69.3,13,70.7,10.2,71.3z M31.3,73.8
				c-0.3,0.1-0.7,0.2-1,0.2c-0.9,0-1.6-0.4-1.7-0.7c0.2-0.1,0.6-0.2,0.9-0.3c0.6-0.2,1.4-0.4,2.1-0.8c0.7-0.5,1.1-1.1,1.5-1.6
				c0.3-0.5,0.5-0.8,0.8-0.8c0.1,0,0.1,0,0.1,0c0.1,0.1,0.2,0.5-0.1,1.2c0,0.1-0.1,0.1-0.1,0.2C33.6,72.1,32.7,73.2,31.3,73.8z
				 M35.3,70.6c0.1-0.5,0-1.1-0.3-1.5c-0.3-0.4-0.8-0.6-1.4-0.5c-0.8,0.2-1.2,0.8-1.6,1.3c-0.2,0.3-0.5,0.7-0.8,1c0,0,0,0,0,0
				C24.9,71.1,17,67.4,17,67.4c0,0-0.1-0.1,0-0.2l0,0c1.6-1.2,4.8-3.6,8.6-5.2c2-0.9,3.9-1.4,5.7-1.7c1.6-0.2,3.2-0.3,4.6-0.2
				c0.3,0,0.6,0,0.9,0.1c-1,1.1-1.7,2.5-1.5,4.6c0.2,2.2,1.2,4,2.7,5.1C37.3,70.2,36.3,70.4,35.3,70.6z M45.2,64.3
				c-0.4,0.4-0.2,0.8,0,1.1c0,0,0,0,0,0.1c0,0.2-0.1,0.4-0.3,0.4c-0.1,0-0.1,0-0.2,0c-0.3-0.1-0.7,0-0.9,0.3c-0.3,0.5-0.8,1-1.4,1.5
				c0,0,0,0,0,0c-0.3,0.2-0.5,0.4-0.9,0.6c0,0,0,0,0,0c-0.2,0.1-1,0.6-1.8,1c0,0,0,0-0.1,0c0,0-0.1,0-0.1,0.1
				c-1.6-0.9-2.7-2.6-2.9-4.7c-0.2-2,0.7-3.1,1.8-4.2c2.5,0.4,5,1.9,5.7,3c0.1,0.2,0.3,0.4,0.8,0.3l0,0c0.1,0,0.2,0,0.3,0.1
				c0.1,0.1,0.1,0.1,0.1,0.2C45.3,64.2,45.3,64.3,45.2,64.3z"/>
		</g>
		<path id="Shake_1_" d="M71.5,16l-0.7-1.4c-0.1-0.3-0.4-0.3-0.7-0.2l-3.8,2L66,16.6c-0.1,0.1-0.2,0.1-0.2,0.3l-0.1,0.2l-1.8,4.3
			c-0.6-0.1-1.2-0.2-1.7-0.2c-1.8,0-3.5,0.6-4.9,1.8c-1.3,1.1-2.1,2.6-2.5,4.2c-0.6,0.3-0.9,1-0.9,1.6c0,0.3,0.1,0.9,0.4,1.2
			l2.5,16.2c0,0.3,0.3,0.4,0.5,0.4h9.8c0.3,0,0.5-0.2,0.5-0.4L70.1,30c0.3-0.3,0.4-0.9,0.4-1.2c0-0.5-0.4-1.2-0.9-1.5
			c0,0-0.1-0.1-0.1-0.1c-0.4-1.9-1.6-3.6-3.2-4.7l1.6-3.9l3.4-1.8c0.1-0.1,0.2-0.2,0.2-0.3C71.6,16.3,71.6,16.1,71.5,16z M66.6,45.5
			h-8.9l-2.3-15.2h8.7c0.3,0,0.5-0.2,0.5-0.5c0-0.3-0.2-0.5-0.5-0.5h-8.9c0,0,0,0,0,0c-0.1-0.1-0.2-0.4-0.2-0.5
			c0-0.2,0.2-0.5,0.4-0.7H69c0.3,0.1,0.4,0.5,0.4,0.7c0,0.2-0.1,0.5-0.2,0.5c0,0,0,0,0,0h-1.7c-0.3,0-0.5,0.2-0.5,0.5
			c0,0.3,0.2,0.5,0.5,0.5H69L66.6,45.5z M67.2,17.7c-0.1,0.1-0.2,0.1-0.2,0.3l-1.9,4.5c-0.1,0.2,0,0.5,0.2,0.6c1.5,0.9,2.6,2.3,3,4
			H55.9c0.7-2.8,3.3-4.8,6.2-4.8c0.6,0,1.3,0.1,1.9,0.3c0.3,0.1,0.5,0,0.6-0.3l2-4.8l3.4-1.8l0.2,0.4L67.2,17.7z"/>
		<path id="Fries_1_" d="M107.2,61.3c-0.4,0-1.7,0-2,0l1.2-2.9c0.1-0.1,0-0.3,0-0.4c-0.1-0.1-0.2-0.2-0.4-0.2h-3.4l1.4-3.7
			c0.1-0.1,0-0.3-0.1-0.4c-0.1-0.1-0.2-0.2-0.4-0.2l-2.5,0.3l0.3-3c0-0.1,0-0.3-0.1-0.3c-0.1-0.1-0.2-0.1-0.3-0.1l-3.6,0.3L96.7,49
			c0-0.1-0.1-0.2-0.2-0.3c-0.1,0-0.2,0-0.3,0L93,50.2L93,50c0-0.1-0.1-0.2-0.2-0.3c-0.1,0-0.2-0.1-0.3,0l-4.1,1.6
			c-0.2,0.1-0.3,0.3-0.3,0.5l0.3,1l-2.7,0c-0.1,0-0.3,0.1-0.3,0.2c-0.1,0.1-0.1,0.3,0,0.4l1.1,2.8H84c-0.1,0-0.3,0.1-0.3,0.2
			c-0.1,0.1-0.1,0.2-0.1,0.4l1.2,4.5c-0.6,0-1.1,0-1.7,0c-0.2,0-0.4,0.2-0.4,0.4c0,2.9,0.1,5.3,1.1,7.2c0.9,1.7,2.5,3,5.3,4.3
			c-0.3,0.4-0.5,1-0.5,1.7c0,0.2,0.2,0.4,0.4,0.4h11.5c0.2,0,0.4-0.2,0.4-0.4c0-0.6-0.2-1.2-0.4-1.5c3-1.3,4.9-2.9,6-4.9
			c1.1-2,1.2-4.3,1.2-6.7C107.6,61.5,107.4,61.3,107.2,61.3z M105.4,58.7l-1.1,2.6c-1,0-2,0-2.9,0l0.9-2.6H105.4z M100.4,61.3
			c-1,0-1.9,0-2.9,0v0l2.5-6.5l2.8-0.3L100.4,61.3z M96.6,55l0,6.3c-1.1,0-2.3,0-3.5,0v-5.2L96.6,55z M100.1,53.9l-0.4,0
			c-0.2,0-0.3,0.1-0.4,0.3l-1.9,4.7v-4.5c0-0.1-0.1-0.3-0.2-0.3C97.2,54,97.1,54,96.9,54l-0.2,0.1l0.2-2.6l3.3-0.3L100.1,53.9z
			 M96,49.7l0.3,1c-0.1,0.1-0.2,0.2-0.2,0.3l-0.3,3.3l-1.4,0.4L93.3,51L96,49.7z M89,52l3.3-1.3l0.1,0.2v0l1.3,4.2l-1.1,0.3
			c-0.2,0.1-0.3,0.2-0.3,0.4v2.3l-1.9-5c-0.1-0.2-0.2-0.3-0.4-0.3l-0.8,0L89,52z M86.3,53.7l3.5,0l2.6,6.8v0.8c-0.8,0-1.6,0-2.4,0
			l-1.5-4.8c-0.1-0.2-0.2-0.3-0.4-0.3h-0.7L86.3,53.7z M84.6,57.1h3.1l1.4,4.2c-1.1,0-2.2,0-3.3,0L84.6,57.1z M99.5,72.8
			C99.5,72.8,99.5,72.8,99.5,72.8l-1.8,0c-0.2,0-0.4,0.2-0.4,0.4c0,0.2,0.2,0.4,0.4,0.4h1.9c0.1,0,0.3,0.3,0.4,0.8H89.5
			c0.1-0.5,0.3-0.8,0.4-0.8h4.5c0.2,0,0.4-0.2,0.4-0.4c0-0.2-0.2-0.4-0.4-0.4h-4c0,0,0,0,0,0c-3.2-1.3-4.9-2.6-5.8-4.3
			c-0.8-1.5-1-3.4-1-6.4c4.2,0,22.9,0.1,23.2,0.1C106.7,66.8,106.1,70.1,99.5,72.8z"/>
	</g>
</g>
<g id="Guides" display="none">
</g>
</svg>
